<svg xmlns="http://www.w3.org/2000/svg" xmlns:xlink="http://www.w3.org/1999/xlink" width="40" height="40"><defs><path id="A" d="M8.857 25.842C7.286 25.842 6 24.58 6 23.035v-12.68C6 9.606 6.617 9 7.378 9h17.244a1.37 1.37 0 0 1 1.372 1.224l.006.13v12.68c0 1.487-1.192 2.713-2.684 2.802l-.173.005H8.857z"/><path id="B" d="M0 0h1v1H0z"/><path id="C" d="M.842 0v1.684H0A.842.842 0 1 0 0 0a.842.842 0 0 0 0 1.684h-.842V0H.842z"/></defs><g fill="none" fill-rule="evenodd"><g transform="translate(4 10)"><path fill="#ffc400" d="M4.683 1.328l5.197 3-3 5.196-5.197-3a1 1 0 0 1-.366-1.366l2-3.464a1 1 0 0 1 1.366-.366zm22.666 0l-5.197 3 3 5.196 5.197-3a1 1 0 0 0 .366-1.366l-2-3.464a1 1 0 0 0-1.366-.366z"/><mask id="D" fill="#fff"><use xlink:href="#A"/></mask><use fill="#fec100" xlink:href="#A"/><path fill="#ff8b00" fill-rule="nonzero" d="M19 9A10 10 0 0 1 9 19C3.478 19-1 14.523-1 9S3.478-1 9-1A10 10 0 0 1 19 9" mask="url(#D)"/><g mask="url(#D)"><g transform="translate(11.902 6.474)"><mask id="E" fill="#fff"><use xlink:href="#B"/></mask><use xlink:href="#C" fill="#fff" mask="url(#E)"/></g></g><g mask="url(#D)"><g transform="matrix(-1 0 0 1 20.323 6.474)"><mask id="F" fill="#fff"><use xlink:href="#C" href="#B"/></mask><use xlink:href="#C" fill="#fff" mask="url(#F)"/></g></g></g><path fill="#ff8b00" d="M10 19h2v2h-2z"/><path fill="#fec100" d="M28 19h2v2h-2z"/><g fill-rule="nonzero"><path fill="#ffc400" d="M13.843 13.75l1.5 1.5H10.75v-1.5h3.093zm15.407.001v1.5h-4.885l1.5-1.5h3.385z"/><path fill="#fff" d="M21.55 4h-3.4a.75.75 0 0 0-.75.75v5.973h-2.66a.75.75 0 0 0-.53 1.28l5.104 5.104a.75.75 0 0 0 1.06 0l5.105-5.104a.75.75 0 0 0-.53-1.28h-2.66V4.75a.75.75 0 0 0-.75-.75z"/><path fill="#ff8b00" d="M21.55 4a.75.75 0 0 1 .75.75l-.001 5.973h2.66a.75.75 0 0 1 .53 1.28l-5.104 5.104a.75.75 0 0 1-1.06 0l-5.104-5.104a.75.75 0 0 1 .53-1.28h2.66V4.75a.75.75 0 0 1 .75-.75h3.4z"/></g></g></svg>