<svg width="260" height="190" viewBox="0 0 260 190" fill="none" xmlns="http://www.w3.org/2000/svg"><g clip-path="url(#clip0)"><path fill-rule="evenodd" clip-rule="evenodd" d="M258.295 111.913c-1.26 5.033-2.817 9.77-4.522 14.285l-.075.222-8.97 17.69-1.779 2.664c-.223.371-.445.667-.668 1.037-22.315 31.679-59.458 42.559-95.118 42.189-62.869-.592-106.758-14.063-130.63-40.931-.37-.444-.742-.888-1.112-1.258-1.483-1.703-2.892-3.479-4.3-5.329-1.483-1.999-2.892-3.997-4.226-6.144C1.557 127.9.593 117.908.075 107.25c-3.04-68.317 56.714-66.245 94.154-71.13 35.215-4.589 39.144-44.484 103.792-34.492 77.77 11.991 60.274 110.285 60.274 110.285z" fill="url(#paint0_linear)"/><path d="M91.189 75.719c0 1.184-.074 2.442-.222 3.7a72.59 72.59 0 0 1-.816 5.626 72.306 72.306 0 0 1-.667 3.035l-17.052 3.33s-.815-1.11-1.78-2.812a45.25 45.25 0 0 1-2.965-5.996c-.296-.814-.593-1.628-.815-2.368-.593-1.999-.816-3.923-.37-5.477 1.63-5.848 21.796-8.216 23.427-5.774.963 1.629 1.334 4.071 1.26 6.736z" fill="url(#paint1_radial)"/><path opacity=".3" d="M91.19 75.719c0 1.184-.075 2.442-.223 3.7-.593-.147-1.038-.444-1.186-.888-.594-1.554-2.744.222-4.004-.222-1.26-.444-3.633 3.257-4.819 3.331-1.186 0-.222-4.07-.964-1.554-.741 2.442-4.077 2.146-6.301.888-1.483-.814-4.226.666-6.005 1.85-.297-.814-.594-1.628-.816-2.368l.297-1.48s7.191-1.555 8.155-1.999c.963-.37 8.526-1.998 9.638-2.146 1.037-.296 3.484-.296 6.227.888z" fill="#9A67AA"/><path d="M89.855 68.54s5.634 6.217 3.929 6.81c-1.705.517-4.523 0-4.523 0s2.225 3.478-.148 3.478c-2.372.074-4.819-2.22-4.819-2.22s-2.001 4.662-4.596 4.218c-2.67-.444-4.82-2.072-4.82-2.072s1.632 2.516-1.037 2.442c-2.669-.074-2.595-2.294-5.486-.222-2.892 2.073-5.709 2.147-4.374-.074 1.334-2.22 1.853-4.367 2.15-7.623.296-3.257 14.382-8.364 19.498-6.736 2.817.74 4.226 1.999 4.226 1.999z" fill="url(#paint2_linear)"/><path opacity=".1" d="M75.472 72.314c.074 0-.37 1.184-.964 1.406-.519.222-1.112 0-1.631-.444-.074.074-.222.148-.37.222-.594.222-1.854-.444-1.78-.666.148-.148.519.222 1.186 0l.445-.222c.297-.148.519.222.741.296.371.148.816.148 1.26 0 .52-.148 1.039-.592 1.113-.592zm12.01 1.776c.074 0-.37 1.185-.964 1.407-.519.222-1.112 0-1.63-.444-.075.074-.223.148-.371.222-.593.222-1.854-.444-1.78-.666.148-.148.52.222 1.187 0l.444-.222c.297-.148.52.222.742.296.37.148.815.148 1.26 0 .519-.148 1.038-.593 1.112-.593z" fill="#9A67AA"/><path d="M96.823 138.929c-11.936 1.184-26.837.592-29.58-3.035-2.15-2.887-3.114-8.068-3.485-11.176-.148-1.333-.222-2.295-.296-2.591 0 0 1.186-1.702 3.113-4.293.223-.222.371-.518.593-.814 3.114-4.071 7.933-10.066 13.345-15.469 1.705-1.481 3.41-2.961 5.042-4.293.667 2.96 3.855 10.954 4.374 21.094.593 11.695 5.857 19.096 6.894 20.577z" fill="url(#paint3_radial)"/><path d="M119.806 113.985s-2.224-2.146-8.081.592c-4.893.445-9.638-25.905-9.638-25.905l4.819-4.515s3.781.74 7.636 4.293c3.855 3.552 5.264 25.535 5.264 25.535z" fill="#8B748F"/><path d="M115.877 132.563c-2.15 3.331-9.341 5.404-19.053 6.366-1.038-1.481-6.302-8.882-6.895-20.651-.52-10.14-3.707-18.134-4.374-21.094 5.486-4.515 10.601-8.068 15.865-8.956.148 0 .297 0 .445-.074 8.155-.667 12.381 7.55 14.531 15.543a65.212 65.212 0 0 1 1.26 5.921c1.854 10.881.742 19.023-1.779 22.945z" fill="url(#paint4_radial)"/><path opacity=".15" d="M110.391 97.85c-.371-2.517-2.224-3.627-4.671-3.775h-.445c-2.743 0-5.115 3.849-5.115 3.849s.148 2.516.222 2.664c.519 3.183 3.633 4.145 6.079 3.701 2.15-.444 4.152-2.22 4.004-4.81.074-.075 0-1.481-.074-1.63z" fill="#9A67AA"/><path d="M110.02 97.85c.222 2.516-1.334 4.811-3.707 5.181-.222 0-.445.074-.667.074a4.332 4.332 0 0 1-3.04-1.258c-.964-.889-1.557-2.147-1.705-3.553-.222-3.035 2.002-5.33 4.597-5.181.222 0 .519.074.741.148 1.038.222 1.928.888 2.521 1.702.741.74 1.112 1.777 1.26 2.887z" fill="url(#paint5_linear)"/><path d="M110.02 97.85c.222 2.516-1.334 4.811-3.707 5.181-.222 0-.445.074-.667.074a4.332 4.332 0 0 1-3.04-1.258c-.964-.889-1.557-2.147-1.705-3.553-.222-3.035 2.002-5.33 4.597-5.181.222 0 .519.074.741.148 1.038.222 1.928.888 2.521 1.702.741.74 1.112 1.777 1.26 2.887z" fill="url(#paint6_linear)"/><path d="M110.391 97.332c-.371-2.517-2.299-4.59-4.745-4.885h-.371c-2.817-.075-5.041 2.22-4.967 5.403v.37c0 .222.074.37.074.518.519 3.183 3.188 5.181 5.931 4.737h.074c.074 0 .223-.074.297-.074 2.372-.592 3.929-2.887 3.781-5.477v-.222c-.074-.074-.074-.222-.074-.37zm-4.078 5.699c-.222 0-.445.074-.667.074a4.332 4.332 0 0 1-3.04-1.258c-.964-.889-1.557-2.147-1.705-3.553-.222-3.035 2.002-5.33 4.597-5.181.222 0 .519.074.741.148 1.038.222 1.928.888 2.521 1.702.667.814 1.038 1.85 1.186 2.96.222 2.443-1.335 4.738-3.633 5.108z" fill="url(#paint7_linear)"/><path d="M106.684 103.549c-.074 0-.223.074-.297.074h-.074l-.445-5.329c0-.296-.074-.518-.074-.814-.148-1.629-.296-3.33-.519-4.96h.445c.148 1.63.297 3.258.519 4.96 0 .296.074.518.074.814 0 1.702.222 3.479.371 5.255z" fill="url(#paint8_linear)"/><path d="M110.391 97.85v.222c-1.335.074-2.743.074-4.226.148h-.371c-1.705.074-3.484.222-5.486.592 0-.148-.074-.37-.074-.518v-.37c1.927-.296 3.781-.37 5.486-.444h.371c1.482-.074 2.965-.074 4.226-.074.074.074.074.222.074.444z" fill="url(#paint9_linear)"/><path opacity=".3" d="M116.47 103.771c-3.633-5.7-9.119-8.512-14.086-.666-5.041 7.846-5.486 18.948-12.455 20.206-6.97 1.259-15.273 2.073-26.17 1.333-.15-1.333-.223-2.295-.297-2.591v-.074s1.186-1.702 3.113-4.293c.223-.296.371-.518.593-.814 3.188-4.145 8.156-10.214 13.716-15.766 6.82-5.847 14.383-11.176 20.981-12.953 8.155-.592 12.381 7.624 14.605 15.618z" fill="#9A67AA"/><path d="M57.012 120.869c6.672 4.663 34.177-.962 34.177-.962s2.817-31.976 14.531-38.119c-11.269 0-26.69 6.365-34.844 10.14-3.782 1.777-7.044 4.737-9.268 8.66-3.929 6.662-8.97 17.172-4.596 20.281z" fill="url(#paint10_linear)"/><path d="M117.211 100.292c-1.483-6.661-4.226-13.249-9.934-13.397-8.897.963-11.936 20.947-12.826 29.089-.222 2.072-1.483 3.627-3.262 3.923-1.78.296-3.484-1.629-3.188-3.701 1.26-10.289 5.634-35.38 17.793-34.418 13.419 1.036 17.126 23.685 17.867 29.163.074.814-.148 1.554-.667 1.924-.816.666-2.076 1.48-3.114 1.11-.889-.296-1.186-7.031-2.669-13.693z" fill="url(#paint11_linear)"/><path opacity=".3" d="M61.312 99.922c-1.038 1.925-7.488 5.255-6.005 8.512 1.482 3.257 8.303.74 8.303.74s-3.707 4.663 4.522.814c0 0-2.52 3.775 1.483 4.145 4.003.37 4.893-4.367 4.893-4.367s2.669 8.068 5.338-2.59c4.67.074 18.09-1.629 9.119-11.547 14.012.814 5.783-4.219 5.783-4.219s7.71-1.036 8.006-2.368c.519-2.517-3.41-3.183-3.41-3.183s4.152-1.332 1.779-3.627c-1.186-1.184-7.932 1.555-13.715 3.33-9.712 2.962-14.531 4.516-19.795 9.401-3.262 4.737-6.301 4.96-6.301 4.96z" fill="#9A67AA"/><path d="M61.015 100.366c-1.038 1.851-7.784 5.551-6.227 8.438 1.556 2.887 8.6-.074 8.6-.074s-3.856 4.663 4.744.296c0 0-2.669 3.701 1.557 3.701 4.152-.074 5.116-4.515 5.116-4.515s2.743 7.106 5.56-2.961c4.819-.37 18.757-3.256 9.49-11.472 14.456-.592 6.005-4.441 6.005-4.441s8.007-1.703 8.303-2.96c.519-2.37-3.484-2.591-3.484-2.591s4.3-1.629 1.853-3.553c-1.186-.962-8.23 2.22-14.234 4.44-10.083 3.702-16.162 3.998-21.648 9.03-3.485 4.664-7.34 3.184-7.488 4.59-.52 2.738 1.853 2.072 1.853 2.072z" fill="url(#paint12_linear)"/><path d="M65.315 104.437s-2.669-3.553-.741-3.109c1.927.445 1.334 3.183 1.334 3.183l-.593-.074z" fill="#FFE6D2"/><path d="M65.463 104.215s1.928-2.368 2.744-.518c.815 1.85-2.447 1.11-2.447 1.11l-.297-.592z" fill="#FFE6D2"/><path d="M65.834 104.363s3.855 2.073 2.447 2.739c-1.409.666-2.818-2.517-2.818-2.517l.371-.222z" fill="#FFE6D2"/><path d="M65.908 104.659s.445 3.701-1.26 2.221c-1.705-1.407.667-2.591.667-2.591l.593.37z" fill="#FFE6D2"/><path d="M65.612 104.733s-3.633.222-3.188-1.332c.37-1.554 3.262.888 3.262.888l-.074.444z" fill="#FFE6D2"/><path d="M66.371 104.605c.061-.28-.214-.577-.614-.664-.4-.087-.774.069-.835.349-.06.279.214.577.614.664.4.087.774-.069.835-.349z" fill="#FFD293"/><path d="M83.034 97.998s2.298-3.035.445-2.59c-1.854.443-.964 2.664-.964 2.664l.519-.074z" fill="#FFE6D2"/><path d="M82.886 97.776s-2.224-2.073-2.818-.518c-.593 1.554 2.595.962 2.595.962l.223-.444z" fill="#FFE6D2"/><path d="M82.515 97.924s-3.633 1.702-2.15 2.294c1.483.592 2.595-2.072 2.595-2.072l-.445-.222z" fill="#FFE6D2"/><path d="M82.515 98.22s-.074 3.108 1.483 1.924c1.557-1.184-.964-2.22-.964-2.22l-.519.296z" fill="#FFE6D2"/><path d="M82.812 98.294s3.632.222 3.04-1.11c-.52-1.333-3.189.666-3.189.666l.149.444z" fill="#FFE6D2"/><path d="M82.764 98.443c.409-.022.73-.238.717-.483-.013-.245-.355-.426-.764-.404-.41.022-.73.238-.717.483.013.245.355.426.764.404z" fill="#FFD293"/><path opacity=".1" d="M73.174 96.37c.074 0-.371 1.184-.964 1.406-.519.222-1.112 0-1.631-.444-.074.074-.222.148-.37.222-.594.222-1.854-.445-1.78-.667.148-.148.519.222 1.186 0l.445-.222c.296-.148.519.222.741.296.371.148.816.148 1.26 0 .52-.222 1.039-.666 1.113-.592zm7.116 5.403c.075 0-.37 1.184-.963 1.406-.519.222-1.112 0-1.63-.444-.075.074-.223.148-.372.222-.593.222-1.853-.444-1.779-.666.148-.148.52.222 1.186 0l.445-.222c.297-.148.52.222.741.296.371.148.816.148 1.26 0 .446-.222 1.039-.592 1.113-.592z" fill="#9A67AA"/><path d="M118.323 122.201c.149 1.184.149 2.369.149 3.405 0 1.554-.223 3.183-.519 4.737-.074.444-.148.814-.223 1.258l-.37 1.481c-.371 1.702-1.631 2.96-3.114 3.33l-12.01 2.443c-1.483.296-2.892-.444-3.485-1.925l-.519-1.332-.445-1.11a21.65 21.65 0 0 1-1.112-4.441c-.148-1.036-.296-2.147-.296-3.331-.074-2.072.074-4.293.519-6.439.445-2.295 1.26-4.441 2.446-6.366l.074-.074c.223-.296.371-.592.594-.888 1.112-1.48 2.446-2.665 4.003-3.405.148-.074.297-.148.371-.148a5.834 5.834 0 0 1 1.927-.592c.667-.148 1.335-.222 2.002-.148h.445c1.557.074 3.039.666 4.3 1.702.222.149.445.371.667.593l.074.074c1.409 1.406 2.521 3.182 3.262 5.255.667 1.776 1.112 3.849 1.26 5.921z" fill="url(#paint13_linear)"/><path opacity=".3" d="M116.915 126.494c-.371 3.701-1.928 9.548-2.002 9.77l-12.01 2.443c3.781-7.476-3.41-7.328-3.262-12.657.148-5.329.445-10.955 5.709-14.211l.444-.222 1.335-.444c1.483-.296 2.817-.148 4.077.518.149.074.371.148.519.296.074 0 .149.074.223.148.37.222.667.518.964.814l.148.148.074.074.371.37c2.594 3.331 3.781 9.252 3.41 12.953z" fill="#9A67AA"/><path d="M115.506 125.828c0 .518-.074 1.11-.074 1.628 0 .148 0 .296-.074.518-.222 1.851-.667 3.775-1.112 5.478-.074.222-.148.37-.148.592-.075.296-.149.518-.223.814-.074.148-.074.296-.148.444l-.445 1.332-9.934 2.073c-1.409-2.369-3.04-5.848-3.633-9.474 0-.222-.074-.37-.074-.592-.074-.445-.074-.889-.148-1.407-.149-2.368-.075-4.811.518-7.105.371-1.481.816-2.813 1.483-3.997v-.074c.074-.148.148-.222.223-.37.148-.296.37-.518.519-.74.741-.963 1.631-1.777 2.743-2.295.148-.074.222-.074.37-.148a6.28 6.28 0 0 1 1.261-.37c1.334-.296 2.594-.148 3.632.37l.445.222c.074.074.149.074.223.148.296.222.593.444.889.74l.223.222.296.296c.742.815 1.335 1.851 1.78 3.035 0 .074 0 .074.074.148.074.148.148.37.222.518.816 2.295 1.186 5.255 1.112 7.994z" fill="#7986A8"/><path opacity=".3" d="M115.506 125.828c0 .222.445-11.695-7.932-10.14-8.378 1.554-8.007 12.953-8.007 12.804-.074-.444-.074-.888-.148-1.406-.149-2.368-.075-4.811.519-7.105.37-1.481.815-2.813 1.482-3.997v-.074c.074-.148.148-.222.223-.37.148-.296.37-.518.519-.741.741-.962 1.631-1.776 2.743-2.294.148-.074.222-.074.37-.148a6.28 6.28 0 0 1 1.261-.37c1.334-.296 2.595-.148 3.632.37l.445.222c.074.074.149.074.223.148.296.222.593.444.889.74l.223.222.296.296c.742.814 1.335 1.851 1.78 3.035 0 .074 0 .074.074.148.074.148.148.37.222.518.89 2.443 1.26 5.403 1.186 8.142z" fill="#9A67AA"/><path opacity=".56" d="M114.174 125.082c.248-.649-.015-1.353-.589-1.572-.574-.219-1.24.13-1.489.779-.248.649.016 1.353.589 1.572.574.219 1.24-.13 1.489-.779z" fill="#9A67AA"/><path d="M114.246 124.126c.074.666-.445 1.332-1.038 1.48-.593.148-1.186-.296-1.186-1.036-.074-.666.445-1.333 1.038-1.481.593-.074 1.186.37 1.186 1.037z" fill="url(#paint14_radial)"/><path opacity=".2" d="M103.718 135.45c-.296 1.184-.444 2.147-.148 3.109l-.296.074c-.371-1.185-.149-2.295.222-3.701.741-2.813-.816-4.145-1.631-6.439-.816-2.221-.519-4.293-.148-6.736.37-2.369.296-4.071-.297-5.773.074-.148.148-.222.223-.37 0 0-.001.074.074.074.444 1.11.741 2.368.667 3.774-.148 2.517-1.038 5.034-.593 7.55.445 2.221 2.372 3.997 2.52 6.292-.074.74-.444 1.406-.593 2.146zm6.895 1.702l-.37.074c-.519-1.406-1.187-2.812-1.854-4.144-1.334-2.591-2.669-4.367-2.15-7.624.445-2.813 1.409-5.625.519-8.364-.519-1.628-1.483-2.961-1.779-4.589.148-.074.222-.074.37-.148.371 1.702 1.409 3.109 1.928 4.959.667 2.443-.148 4.959-.519 7.476-.667 3.775.816 5.551 2.298 8.512a206.91 206.91 0 0 1 1.557 3.848zm1.705-21.76v.518c.075 2.59-.296 5.181-.815 7.919-.741 4.071-.222 7.846.519 11.621 0 .074 0 .148.074.222.074.37.148.74.222 1.036l-.222.074c-.074-.37-.148-.74-.222-1.036 0-.074 0-.148-.075-.222-.741-3.257-1.26-6.587-.889-10.066.371-3.553 1.186-6.736 1.038-10.14 0-.297 0-.667-.074-.963 0-.222 0-.444-.075-.592l.297.296c.148.444.222.888.222 1.333z" fill="#9A67AA"/><g opacity=".3"><path opacity=".3" d="M110.835 104.882c-.074.296-3.632.518-3.929.222-.222-.296-.371-1.258-.296-1.554.074-.296 3.632-.667 3.929-.222.296.518.445 1.258.296 1.554z" fill="url(#paint15_linear)"/><path opacity=".3" d="M113.504 107.102c-.074.296-3.632.518-3.929.222-.222-.296-.371-1.258-.296-1.555.074-.296 3.632-.666 3.929-.222.296.519.445 1.259.296 1.555z" fill="url(#paint16_linear)"/><path opacity=".3" d="M115.358 104.511c-.074.296-3.633.518-3.929.222-.223-.296-.371-1.258-.297-1.554.074-.296 3.633-.666 3.929-.222.297.444.445 1.258.297 1.554z" fill="url(#paint17_linear)"/></g><g opacity=".3"><path opacity=".3" d="M76.14 128.937c-.075.296-3.634.518-3.93.222-.222-.296-.37-1.258-.297-1.554.075-.296 3.633-.666 3.93-.222.222.518.37 1.258.296 1.554z" fill="url(#paint18_linear)"/><path opacity=".3" d="M78.808 131.157c-.074.296-3.633.518-3.93.222-.222-.296-.37-1.258-.296-1.554.074-.296 3.633-.666 3.93-.222.222.518.37 1.258.296 1.554z" fill="url(#paint19_linear)"/><path opacity=".3" d="M80.662 128.566c-.075.297-3.633.519-3.93.222-.222-.296-.37-1.258-.296-1.554.074-.296 3.632-.666 3.93-.222.222.444.37 1.258.296 1.554z" fill="url(#paint20_linear)"/></g><g opacity=".3"><path opacity=".3" d="M75.917 84.75c-.074.296-3.633.518-3.93.222-.222-.296-.37-1.259-.296-1.555.074-.296 3.633-.666 3.93-.222.296.518.444 1.259.296 1.555z" fill="url(#paint21_linear)"/><path opacity=".3" d="M78.66 86.97c-.074.295-3.633.517-3.93.221-.222-.296-.37-1.258-.296-1.554.074-.296 3.633-.666 3.93-.222.222.444.37 1.258.296 1.554z" fill="url(#paint22_linear)"/><path opacity=".3" d="M80.513 84.305c-.074.296-3.633.518-3.93.222-.221-.296-.37-1.258-.296-1.555.075-.296 3.633-.666 3.93-.222.222.519.37 1.259.296 1.555z" fill="url(#paint23_linear)"/></g><path opacity=".4" d="M105.794 81.788c-.593-.074-1.112 0-1.631.074-.371 0-.667.074-1.038.074.222-.518.148-1.11-.667-1.702-1.038-.814-6.598 1.48-12.01 3.553.222-1.333.444-2.813.593-4.441.148-1.259.222-2.443.222-3.701v-.222c.816.074 1.78 0 2.52-.222 1.706-.518-3.929-6.81-3.929-6.81s-1.334-1.258-4.225-2.072c-5.116-1.629-19.202 3.552-19.499 6.735-.296 3.257-.74 5.403-2.15 7.624-1.186 1.924.816 2.072 3.263.74l.444 1.11a45.245 45.245 0 0 0 2.966 5.996c.37.666.741 1.184 1.038 1.628-1.854.888-3.485 1.924-5.116 3.405-3.484 4.663-7.34 3.182-7.488 4.589-.296 2.516 1.706 2.146 2.002 2.072-1.038 1.184-3.484 2.887-4.893 4.663-1.186 1.258-1.927 2.591-1.334 3.775.37.74 1.186 1.11 2.15 1.184-1.78 4.663-2.521 9.03.074 10.881 1.408.962 3.707 1.48 6.45 1.702 0 .296.074.592.074 1.036 0 .296.074.666.148 1.037.445 3.108 1.409 8.363 3.485 11.176 2.817 3.627 17.644 4.219 29.58 3.035 1.187-.148 2.299-.222 3.337-.37.593.37 1.334.444 2.075.296l1.038-.222.297-.074 4.745-.963 2.001-.37.371-.074 1.483-.296.222-.074 1.928-.37.667-.148v-.074c1.186-.518 2.15-1.702 2.447-3.109l.37-1.48c.074-.444.149-.814.223-1.258.296-1.555.519-3.183.519-4.737 0-.666 0-1.407-.074-2.147.222-2.96.222-6.365-.223-10.14.964.222 1.483.592 1.557.666 1.038.444 2.298-.37 3.114-1.11.519-.444.741-1.184.667-1.924-.667-5.256-4.374-27.905-17.793-28.94z" fill="#FFEEE9"/><path d="M84.072 60.027c0-.074 0-.074 0 0-.445-3.627-3.707-6.143-7.34-5.699-.222 0-.519.074-.741.148-.89-3.997-4.745-6.735-8.97-6.217a8.155 8.155 0 0 0-6.45 4.81 7.39 7.39 0 0 0-5.56-1.702c-2.522.296-4.598 1.925-5.635 4.071-.89 2.22.222 3.183-2.595 4.22-2.817 1.035-5.857 4.218-1.186 3.034 4.67-1.258 11.12-1.776 24.02-1.184 10.157.444 14.012 2.294 14.457-1.48z" fill="url(#paint24_linear)"/><path d="M250.14 81.566a4.641 4.641 0 0 0-5.264-4.07c-.148 0-.371.073-.519.073-.667-2.886-3.41-4.81-6.45-4.44-2.15.295-3.855 1.627-4.596 3.478-1.038-.888-2.521-1.406-4.004-1.184a4.982 4.982 0 0 0-4.003 2.96c-.667 1.555.148 2.295-1.854 3.035-2.001.74-4.225 3.035-.815 2.146 3.336-.888 8.007-1.258 17.274-.888 7.191.296 9.934 1.629 10.231-1.11z" fill="url(#paint25_linear)"/><path d="M127.665 90.818c-.445-3.627-3.707-6.143-7.34-5.7-.222 0-.519.075-.741.149-.89-3.997-4.745-6.736-8.971-6.218-2.965.37-5.338 2.295-6.45 4.811a7.387 7.387 0 0 0-5.56-1.702c-2.52.296-4.597 1.924-5.634 4.071-.89 2.22.222 3.183-2.595 4.219-2.892 1.036-5.857 4.219-1.186 3.035 4.67-1.259 11.12-1.777 24.02-1.185 10.157.445 14.012 2.369 14.457-1.48z" fill="url(#paint26_linear)"/><path d="M18.46 103.105l4.375 35.454s-.149.74 2.446.296c1.854-.296 1.928-.888 1.928-.888l-6.302-35.454-2.447.592z" fill="url(#paint27_linear)"/><path opacity=".2" d="M18.46 103.105l.964 7.846c.816 0 1.928-.074 2.966-.371l-1.409-8.067h-.222l-2.299.592z" fill="#9A67AA"/><path d="M11.936 103.475c-3.929-2.221-6.895-8.66-4.819-14.211 2.076-5.551 6.599-9.548 14.235-8.216 7.636 1.332 12.455 14.877 7.562 19.984-.074 0-9.045 6.884-16.978 2.443z" fill="url(#paint28_linear)"/><path opacity=".4" d="M22.538 81.418c4.374 5.107 6.45 13.99 1.853 16.284 0 0-7.932 5.995-15.42 3.182.815 1.111 1.853 2.073 2.891 2.665 7.933 4.441 16.978-2.443 16.978-2.443 4.67-4.885.74-17.097-6.302-19.688z" fill="url(#paint29_linear)"/><path opacity=".62" d="M15.273 95.777c.074 0-.297 1.184-.964 1.48-.52.296-1.186.222-1.705-.074-.074.148-.223.222-.371.296-.593.296-2.002 0-1.854-.222.149-.148.52.074 1.26-.296.15-.074.297-.222.446-.296.296-.148.519.148.815.148.445 0 .89-.074 1.335-.296.445-.222.963-.74 1.038-.74z" fill="url(#paint30_linear)"/><path opacity=".62" d="M22.686 88.82c.074 0-.296 1.184-.964 1.48-.519.296-1.186.222-1.705-.074-.074.148-.222.222-.37.296-.594.296-2.002 0-1.854-.222.148-.148.52.074 1.26-.296.149-.074.297-.222.445-.296.297-.148.52.148.816.148.445 0 .89-.074 1.334-.296.37-.222.89-.74 1.038-.74z" fill="url(#paint31_linear)"/><path d="M239.167 110.95l-3.262 26.128s-.222.518 1.705.666c1.409.074 1.557-.296 1.557-.296l1.928-26.498h-1.928z" fill="url(#paint32_linear)"/><path opacity=".2" d="M239.167 110.95l-.741 5.848c.593.148 1.409.296 2.15.296l.445-6.07h-.148l-1.706-.074z" fill="#9A67AA"/><path d="M234.423 110.062c-2.447-2.294-3.337-7.475-.89-11.028 2.521-3.553 6.45-5.625 11.64-3.33 5.189 2.294 6.227 12.878 1.779 15.691 0 0-7.636 3.256-12.529-1.333z" fill="url(#paint33_linear)"/><path opacity=".4" d="M245.988 96.147c2.224 4.441 2.076 11.177-1.631 11.991 0 0-6.746 2.886-11.639-.518.37.962.963 1.776 1.631 2.442 4.893 4.589 12.603 1.333 12.603 1.333 4.226-2.665 3.633-12.065-.964-15.248z" fill="url(#paint34_linear)"/><path opacity=".62" d="M238.204 105.177c.074 0-.445.74-.964.888-.445.148-.89-.074-1.186-.37-.075.074-.223.074-.297.148-.519.148-1.409-.37-1.334-.518.148-.074.37.148.963 0 .149 0 .223-.074.371-.148.222-.074.371.222.519.222.297.074.667.148 1.038 0 .371 0 .815-.296.89-.222z" fill="url(#paint35_linear)"/><path opacity=".62" d="M244.802 101.476c.074 0-.445.741-.964.889-.445.148-.89-.074-1.186-.371-.074.074-.223.074-.297.148-.519.149-1.408-.37-1.334-.518.148-.074.37.148.963 0 .149 0 .223-.074.371-.148.223-.074.371.222.519.222.297.074.667.148 1.038 0 .297.074.816-.222.89-.222z" fill="url(#paint36_linear)"/><path d="M40.33 94.297l-2.372 40.561s-.296.814 2.67.814c2.15 0 2.372-.592 2.372-.592l.222-40.931-2.891.148z" fill="url(#paint37_linear)"/><path opacity=".2" d="M40.33 94.297l-.518 9.03c.964.222 2.15.37 3.41.222l.074-9.326h-.222l-2.743.074z" fill="#9A67AA"/><path d="M32.917 93.409c-4.003-3.257-5.931-11.103-2.447-16.876 3.485-5.773 9.342-9.326 17.571-6.291 8.23 3.034 10.898 19.17 4.374 23.907 0 .074-11.491 5.847-19.498-.74z" fill="url(#paint38_linear)"/><path opacity=".4" d="M49.376 70.908c3.855 6.661 4.3 16.95-1.26 18.652 0 0-10.084 5.107-17.868.37.741 1.406 1.631 2.664 2.743 3.553 8.007 6.587 19.498.74 19.498.74 6.08-4.515 4.226-18.948-3.113-23.315z" fill="url(#paint39_linear)"/><path opacity=".62" d="M38.33 85.489c.147 0-.594 1.258-1.335 1.48-.668.222-1.409 0-1.928-.444-.148.074-.297.222-.519.222-.741.222-2.224-.444-2.076-.592.148-.148.593.222 1.483-.074a3.62 3.62 0 0 0 .519-.222c.37-.148.593.222.89.296a2.276 2.276 0 0 0 1.556-.074c.594-.148 1.26-.592 1.41-.592z" fill="url(#paint40_linear)"/><path opacity=".62" d="M48.041 79.198c.148 0-.593 1.258-1.334 1.48-.668.222-1.41 0-1.928-.444-.148.074-.297.222-.519.222-.741.222-2.224-.444-2.076-.592.148-.148.593.222 1.483-.074.222-.074.37-.148.519-.222.37-.148.593.222.89.296a2.276 2.276 0 0 0 1.556-.074c.593-.148 1.26-.593 1.409-.593z" fill="url(#paint41_linear)"/><path d="M253.772 126.79l-.074.222-8.674 17.172c-.519.888-1.112 1.702-1.705 2.591-.222.296-.445.666-.667.962-.223-.074-.519-.074-.816-.148-.222 0-.37-.074-.593-.074-.37-.074-.667-.148-1.038-.222-.222-.074-.444-.074-.741-.148-2.15-.445-4.3-1.111-6.376-1.629-.296-.074-.519-.148-.815-.148-.816-.148-1.557-.37-2.299-.444-4.893-.814-9.86-1.406-14.827-1.702h-.297c-.222 0-.37 0-.593-.074h-.445c-2.224-.296-2.965-.888-4.596-3.257-.667-.962-4.745-12.879-1.705-15.617 3.039-2.739 7.043 6.217 10.379 6.661 3.336.444 2.15-10.732 7.71-10.436 5.561.296 6.821 10.436 7.933 10.584 1.038.148 2.15-2.961 3.633-3.997.593-.37 1.334-.74 1.927-.444.89.444.742 1.702.593 2.591-.519 2.368-1.112 4.663-1.631 7.031 2.743-3.849 10.676-8.29 15.717-9.474z" fill="url(#paint42_linear)"/><path opacity=".25" d="M245.024 144.184c-.519.888-1.112 1.702-1.705 2.59-.222.297-.445.667-.667.963-.222-.074-.519-.074-.816-.148-.222 0-.37-.074-.593-.074-.37-.074-.667-.148-1.038-.222-.222-.074-.444-.074-.741-.148-2.15-.445-4.3-1.111-6.376-1.629-.296-.074-.519-.148-.815-.148-.816-.148-1.557-.37-2.299-.444-4.893-.814-9.86-1.406-14.827-1.702h-.297c-.222 0-.37 0-.593-.074h-.445c-.222-.37-3.781-7.032-2.224-9.918 1.557-2.961 6.45 6.291 8.6 6.069 2.224-.222 2.373-5.477 3.485-5.847 1.112-.371 1.853 3.7 1.705 5.107.593-1.629 2.743-3.923 3.633-3.701.889.222.667 2.59.963 3.923 1.187-1.111 3.04-4.367 4.226-4.367s1.261 5.699.89 7.031c3.262-3.7 9.267-7.993 10.602-7.919 1.334.074-2.892 6.735-5.709 9.03 2.224.074 2.891-2.073 3.781-1.925.89.148 1.26 3.035-.074 3.849.593-.074.964-.148 1.334-.296z" fill="url(#paint43_linear)"/><path d="M45.076 141.519c-.668.444-1.335.815-1.928 1.037-4.522 1.702-10.009 1.85-14.753 3.034-4.004.962-7.933 2.147-11.862 3.479-.371-.444-.742-.888-1.112-1.258-1.483-1.703-2.892-3.479-4.3-5.329-1.483-1.999-2.892-3.997-4.226-6.144 1.63.74 3.188 1.258 4.3.962 3.336-.962-2.373-11.102 3.04-13.026 5.337-1.999 10.75 7.105 11.861 6.809 1.038-.37.816-3.701 1.78-5.255.37-.592.963-1.258 1.63-1.258.965.074 1.41 1.258 1.632 2.22l1.334 7.328c1.409-6.958 13.048-19.763 15.495-16.21 2.372 3.627-4.819 10.362-4.819 15.025 2.372-3.256 9.86-10.288 11.64-7.549 1.556 2.442-4.374 12.435-9.712 16.135z" fill="url(#paint44_linear)"/><g opacity=".25"><path opacity=".25" d="M12.38 150.476c.223-.074.52-.149.816-.297a3.624 3.624 0 0 1-.815.297s0 .074 0 0z" fill="url(#paint45_linear)"/><path opacity=".25" d="M45.076 141.519c-.075.074-.149.222-.223.296-.593.296-1.112.592-1.705.741-4.522 1.702-10.009 1.85-14.753 3.034-4.004.962-7.933 2.147-11.862 3.479-.371-.444-.742-.888-1.112-1.258-1.483-1.703-2.892-3.479-4.3-5.329 2.298 1.11 4.744 2.368 5.708 1.85 2.002-1.11 0-6.143.89-6.958.89-.814 3.336 2.813 3.707 4.145-.149-1.702.964-4.885 1.927-5.033.964-.148 1.705 2.221 2.521 3.331.667-1.554 1.038-5.403 2.224-5.921 1.112-.519 3.485 4.885 3.707 6.291 1.631-4.885 5.56-11.325 6.82-11.843 1.335-.518 0 7.55-1.705 10.881 2.15-.814 1.854-3.183 2.743-3.405.89-.222 2.447 2.369 1.483 3.701 3.262-2.147 4.968-5.033 6.524-4.589 1.631.444-.37 4.071-2.594 6.587z" fill="url(#paint46_linear)"/></g><path fill-rule="evenodd" clip-rule="evenodd" d="M243.023 146.774c-10.528 15.396-24.466 25.98-40.109 32.79-17.348 7.623-36.698 10.584-55.677 10.436-26.541-.222-49.746-2.813-69.467-7.698-27.727-6.883-48.56-18.356-62.275-34.491 18.238-5.848 60.2-16.802 115.061-16.136 62.053.666 101.124 11.473 112.467 15.099z" fill="url(#paint47_linear)"/><path d="M202.914 179.564c-.074 0-.148.074-.222.074a46.792 46.792 0 0 1-3.411 1.406c-16.384 6.513-34.473 9.104-52.118 8.956-26.541-.222-49.746-2.813-69.467-7.698 2.817.37 5.931.666 9.193.963 23.353 2.146 56.715 2.96 70.06-2.443 19.869-8.068 35.067-2.295 45.594-1.332.149.074.223.074.371.074z" fill="url(#paint48_linear)"/><path opacity=".35" d="M202.692 179.638a46.95 46.95 0 0 1-3.41 1.406c-12.678-.444-16.681-3.775-44.557 3.109-19.943 4.959-49.301 1.924-67.836-.888 23.353 2.146 56.715 2.96 70.06-2.443 19.869-8.068 35.067-2.295 45.595-1.332l.148.148z" fill="#9A67AA"/><path d="M79.55 160.837c-3.188-1.406-11.492-5.847-22.241-3.33-10.676 2.516-16.459 7.105-8.675 8.808 7.785 1.776 41.814-.666 30.916-5.478z" fill="url(#paint49_linear)"/><path d="M181.711 150.549c-17.645-.444-36.327 4.071-30.841 7.846 5.486 3.775 29.062 9.918 40.034 1.11 5.635-4.515 8.452-8.512-9.193-8.956z" fill="url(#paint50_linear)"/><path d="M135.079 155.952c-9.935-1.11-7.562-.222-14.828 2.443-7.265 2.665 14.828 6.884 24.762 4.737 10.009-2.146-3.855-6.513-9.934-7.18z" fill="url(#paint51_linear)"/><path d="M97.343 152.77c3.781-.814-1.483-2.517-3.781-2.739-3.781-.444-2.892-.074-5.635.962-2.817 1.037 5.635 2.591 9.416 1.777z" fill="url(#paint52_linear)"/><path d="M99.79 160.319c-4.671-.518-3.56-.148-6.97 1.111-3.41 1.258 6.97 3.256 11.714 2.22 4.597-.962-1.927-3.035-4.745-3.331z" fill="url(#paint53_linear)"/><path d="M219.151 151.585c-8.007-.444-7.785 6.662-1.113 6.514 4.449-.074 9.119-6.069 1.113-6.514z" fill="url(#paint54_linear)"/><path d="M206.399 146.034c5.338.296 4.819-3.553.889-3.331-5.263.297-6.153 3.035-.889 3.331z" fill="url(#paint55_linear)"/><path d="M193.647 145.738c5.338.296 4.819-3.553.89-3.331-5.264.371-6.153 3.035-.89 3.331z" fill="url(#paint56_linear)"/><path d="M154.429 146.404c5.337.296 4.818-3.552.889-3.33-5.264.296-6.153 2.96-.889 3.33z" fill="url(#paint57_linear)"/><path d="M70.06 148.107c-7.562.444-8.822 4.293-1.26 4.737 7.562.444 6.82-5.033 1.26-4.737z" fill="url(#paint58_linear)"/><path d="M88.595 155.656c-7.563.444-8.823 4.293-1.26 4.737 7.487.444 6.746-5.033 1.26-4.737z" fill="url(#paint59_linear)"/><path d="M108.982 154.842c-7.562.444-8.822 4.293-1.26 4.737 7.488.444 6.746-5.033 1.26-4.737z" fill="url(#paint60_linear)"/><path d="M121.956 152.474c7.117.37 6.376-4.737 1.186-4.441-7.043.444-8.229 4.071-1.186 4.441z" fill="url(#paint61_linear)"/><path d="M205.732 156.248c-14.161.815-16.533 8.068-2.447 8.882 14.16.741 12.752-9.474 2.447-8.882z" fill="url(#paint62_linear)"/><path d="M114.542 161.8c-6.82.37-8.006 3.923-1.186 4.293 6.821.444 6.154-4.515 1.186-4.293z" fill="url(#paint63_linear)"/><path d="M81.477 150.179c6.747.37 6.154-4.515 1.187-4.219-6.821.296-8.007 3.775-1.187 4.219z" fill="url(#paint64_linear)"/><path d="M53.75 152.696c-3.855.222-4.448 2.146-.667 2.368 3.855.222 3.484-2.516.667-2.368z" fill="url(#paint65_linear)"/><path d="M130.408 148.773c3.41.222 3.04-2.295.593-2.147-3.41.222-4.003 1.999-.593 2.147z" fill="url(#paint66_linear)"/><path d="M172.444 148.551c3.41.222 3.04-2.295.593-2.147-3.41.148-4.003 1.925-.593 2.147z" fill="url(#paint67_linear)"/><path d="M81.477 153.362c-3.855.222-4.448 2.146-.667 2.368 3.781.222 3.41-2.59.667-2.368z" fill="url(#paint68_linear)"/><path d="M89.484 163.28c-2.965.148-3.484 1.702-.519 1.85 3.04.223 2.743-1.924.52-1.85z" fill="url(#paint69_linear)"/><path d="M98.38 158.987c4.523.222 4.078-3.035.742-2.813-4.448.297-5.264 2.591-.741 2.813z" fill="url(#paint70_linear)"/><path d="M134.263 146.478c3.336.222 3.04-2.22.593-2.072-3.336.148-3.929 1.85-.593 2.072z" fill="url(#paint71_linear)"/><path d="M121.215 153.436c-3.855.222-4.448 2.146-.667 2.368 3.781.222 3.41-2.516.667-2.368z" fill="url(#paint72_linear)"/><path d="M111.577 153.436c5.635.296 5.042-3.775.964-3.553-5.634.296-6.598 3.183-.964 3.553z" fill="url(#paint73_linear)"/><path d="M117.286 156.249c-3.114.148-3.633 1.776-.519 1.924 3.114.148 2.817-2.072.519-1.924z" fill="url(#paint74_linear)"/><path d="M105.349 152.548c-3.113.148-3.632 1.776-.518 1.924 3.113.148 2.817-2.072.518-1.924z" fill="url(#paint75_linear)"/><path d="M130.408 154.472c3.855.222 3.484-2.59.667-2.368-3.855.222-4.522 2.146-.667 2.368z" fill="url(#paint76_linear)"/><path d="M118.25 148.181c3.855.222 3.484-2.591.667-2.369-3.855.148-4.448 2.147-.667 2.369z" fill="url(#paint77_linear)"/><path d="M104.831 147.144c3.855.223 3.484-2.59.667-2.368-3.855.148-4.523 2.146-.667 2.368z" fill="url(#paint78_linear)"/><path d="M204.026 149.291c-7.117.37-8.303 4.071-1.186 4.441 7.043.444 6.376-4.737 1.186-4.441z" fill="url(#paint79_linear)"/><path d="M211.218 150.031c3.41.222 3.039-2.294.593-2.146-3.411.222-4.004 1.998-.593 2.146z" fill="url(#paint80_linear)"/><path d="M199.059 149.439c3.855.222 3.485-2.591.668-2.369-3.856.149-4.523 2.147-.668 2.369z" fill="url(#paint81_linear)"/><path d="M185.64 148.403c3.855.222 3.485-2.591.668-2.369-3.856.148-4.523 2.147-.668 2.369z" fill="url(#paint82_linear)"/><path d="M94.08 146.848c2.966.148 2.67-1.998.52-1.85-2.966.148-3.485 1.702-.52 1.85z" fill="url(#paint83_linear)"/><path d="M160.359 150.697c6.154.37 5.561-4.071 1.038-3.849-6.153.37-7.191 3.553-1.038 3.849z" fill="url(#paint84_linear)"/><path d="M52.712 148.033c12.381 1.258 29.062-5.404 10.157-7.92-8.155-1.11-22.538 6.735-10.157 7.92z" fill="url(#paint85_linear)"/><path d="M143.604 153.362c6.969-.296 14.828-7.106 0-6.144-14.827 1.037-11.491 6.662 0 6.144z" fill="url(#paint86_linear)"/><path d="M189.496 121.239c-.075 0-.223 0-.297-.074-.148 0-.222 0-.371-.074h-1.482c-.223 0-.519 0-.742.074-.964.074-2.002.296-2.965.592-1.928.518-3.855 1.406-5.635 2.442-.889.519-1.779 1.111-2.743 1.629a96.508 96.508 0 0 1-2.817 1.554c-1.928.962-3.855 1.851-5.857 2.591-4.003 1.48-8.303 2.516-12.603 2.516a24.16 24.16 0 0 1-3.262-.222 22.125 22.125 0 0 1-3.188-.666 21.266 21.266 0 0 1-3.04-1.11c-.964-.444-1.927-.888-2.891-1.407-.964-.518-1.854-1.036-2.743-1.702-.89-.666-1.706-1.332-2.447-2.146a5.642 5.642 0 0 1-.89-1.407c-.222-.518-.37-1.184-.148-1.776.148-.592.593-1.11 1.112-1.406a6.339 6.339 0 0 1 1.631-.667c.297-.074.668-.074.964.074.371.075.593.371.741.667.149.296.223.592.223.888v.444c0 .148 0 .296-.074.444-.223 1.11-.816 2.072-1.557 2.887-1.483 1.628-3.41 2.664-5.486 3.33a23.386 23.386 0 0 1-3.114.667c-.519.074-1.038.148-1.557.148l-1.631.074c-2.15 0-4.226-.074-6.376-.444-2.076-.371-4.152-.889-6.153-1.629-.519-.148-.964-.37-1.483-.592-.519-.222-.964-.444-1.483-.666-.964-.444-1.927-.962-2.743-1.554.89.592 1.854 1.036 2.817 1.48.445.222.964.444 1.483.592.519.148.964.37 1.483.518 2.002.666 4.077 1.184 6.153 1.48 2.076.297 4.226.371 6.302.371l1.557-.075c.519-.074 1.038-.074 1.557-.148 1.038-.148 2.076-.37 3.039-.74 1.928-.666 3.856-1.702 5.19-3.256.667-.741 1.186-1.703 1.409-2.665.074-.444.074-.962-.149-1.332-.148-.37-.593-.444-1.038-.37-.889.222-1.853.74-2.075 1.554-.149.444 0 .888.148 1.258.222.444.445.814.815 1.185.668.74 1.483 1.406 2.299 1.998.889.592 1.779 1.11 2.669 1.554.889.444 1.853.962 2.817 1.333.964.37 1.927.74 2.891 1.036.964.296 2.002.444 3.04.592 1.038.148 2.076.148 3.114.148 4.151-.074 8.229-1.11 12.084-2.591 1.928-.74 3.855-1.628 5.634-2.664.89-.518 1.854-1.036 2.743-1.555.89-.518 1.78-1.11 2.669-1.702 1.854-1.11 3.856-2.072 5.931-2.665a23.147 23.147 0 0 1 3.262-.666c.297-.074.594-.074.816-.074h1.705c.148 0 .297 0 .445.074.148 0 .297 0 .519.074.519.074.815.592.741 1.111.074.444-.37.74-.963.666z" fill="url(#paint87_linear)"/><path d="M181.266 129.011c-.667.074-1.408.148-2.076.222l-2.001.444c-1.335.37-2.595.888-3.781 1.48-.297.148-.593.296-.89.518l-.445.296-.445.296c-.593.444-1.186.814-1.779 1.184-1.186.741-2.446 1.407-3.707 2.073-2.52 1.258-5.189 2.368-7.932 3.035-.668.222-1.409.37-2.076.444-.371.074-.742.148-1.038.148-.371.074-.742.074-1.038.148a13.43 13.43 0 0 1-4.226-.222c1.409-.074 2.743-.296 4.152-.592 1.334-.296 2.669-.741 3.929-1.185a68.91 68.91 0 0 0 7.562-3.33c1.26-.593 2.447-1.259 3.633-1.925.593-.37 1.186-.666 1.779-1.036l.445-.296.519-.296c.296-.148.667-.37.964-.518.667-.296 1.334-.518 2.075-.74.742-.148 1.409-.297 2.15-.445.742-.074 1.409-.148 2.15-.148.668.222 1.409.296 2.076.445z" fill="url(#paint88_linear)"/><path d="M189.718 115.466s7.043-13.471 16.458-5.034c7.34 7.254-3.855 1.481-11.343 6.292 0 0 13.567.518 10.083 3.331-3.41 2.812-15.346 5.921-19.127 0-3.781-5.848 1.037-15.988 4.448-13.249 3.484 2.812-.519 8.66-.519 8.66z" fill="url(#paint89_linear)"/><path fill-rule="evenodd" clip-rule="evenodd" d="M148.572 139.595c1.112 7.253-19.721 16.209-46.485 19.984-26.763 3.775-49.301.962-50.413-6.291-1.112-7.254 19.72-16.21 46.484-19.985 26.764-3.774 49.301-.962 50.414 6.292z" fill="url(#paint90_radial)"/><path d="M99.122 99.552C87.334 99.108 77.77 89.486 76.88 77.125c-.89-13.175 8.823-25.017 21.426-25.906.742-.074 1.409.444 2.15.444 11.788.445 21.352 10.067 22.241 22.427.445 6.292-1.482 12.435-5.412 17.246-4.003 4.885-9.637 7.772-15.791 8.142-.815.074-1.63.148-2.372.074zm1.038-41.301h-1.631c-8.897.592-15.643 8.882-14.976 18.43.593 8.956 7.414 15.987 15.791 16.358h1.631c4.3-.296 8.155-2.295 10.973-5.7 2.891-3.478 4.3-7.993 4.003-12.73-.593-9.03-7.414-16.062-15.791-16.358z" fill="#3A3A3A"/><path d="M101.568 97.85c-11.64-.444-21.129-9.993-21.944-22.131-.89-13.027 8.525-24.278 20.981-25.092a11.921 11.921 0 0 1 2.298 0c11.639.444 21.129 9.992 21.944 22.131.445 6.217-1.482 12.287-5.337 17.024-4.004 4.81-9.49 7.624-15.569 8.068h-2.373zm1.038-40.783h-1.557c-8.822.592-15.42 8.733-14.753 18.208.593 8.882 7.34 15.765 15.569 16.135h1.557c4.226-.296 8.081-2.294 10.898-5.625 2.891-3.479 4.226-7.92 3.929-12.509-.667-8.956-7.414-15.913-15.643-16.21z" fill="#515252"/><path d="M124.847 72.758c-.815-12.138-10.305-21.687-21.944-22.13h-2.299c-2.743.147-5.412.888-7.784 1.998a20.987 20.987 0 0 1 6.524-1.48 11.92 11.92 0 0 1 2.298 0c11.64.444 21.13 9.992 21.945 22.13.445 6.218-1.483 12.287-5.338 17.024-2.224 2.665-4.893 4.737-7.858 6.07 3.484-1.333 6.598-3.627 9.119-6.662 3.855-4.663 5.708-10.732 5.337-16.95z" fill="url(#paint91_linear)"/><path fill-rule="evenodd" clip-rule="evenodd" d="M84.442 91.558c-7.413-.962-13.492-1.924-13.492-1.924L61.83 73.72l-8.525 6.958c-1.186 1.332-1.928 2.516-1.705 4.737l6.82 58.103c.223 1.998 1.26 3.108 2.224 3.626l7.637 4.96c1.482.962 3.262 1.332 5.04 1.11l8.6-1.11 2.521-60.546z" fill="#3F843F"/><path fill-rule="evenodd" clip-rule="evenodd" d="M84.442 91.558c-7.413-.962-13.492-1.924-13.492-1.924L61.83 73.72l-8.525 6.958c-1.186 1.332-1.928 2.516-1.705 4.737l6.82 58.103c.223 1.998 1.26 3.108 2.224 3.626l7.637 4.96c1.482.962 3.262 1.332 5.04 1.11l8.6-1.11 2.521-60.546z" fill="url(#paint92_linear)"/><path fill-rule="evenodd" clip-rule="evenodd" d="M149.906 118.056s-4.152-31.827-6.228-50.331c-.222-1.999-1.482-2.369-2.965-2.22-5.041.37-11.047.666-16.088 1.554l-5.857 1.184c-5.708 1.406-10.082 2.665-14.234 5.921-5.19-2.516-11.936-2.59-18.09-2.664l-6.005.148c-6.08.37-11.64 1.11-17.496 1.776-.148 0-.964.074-1.409.518-.445.444-.222 1.259-.222 1.259l8.748 74.756c.222 1.999 2.076 3.405 4.152 3.183l33.213-3.997 6.895-.814 12.603-1.555c14.531-1.628 24.762-13.175 22.983-28.718z" fill="#4A9E46"/><path fill-rule="evenodd" clip-rule="evenodd" d="M104.534 74.09c-5.19-2.516-11.936-2.59-18.09-2.664l-6.005.148c-6.08.37-11.64 1.11-17.496 1.776-.148 0-.964.074-1.409.518-.445.444-.222 1.259-.222 1.259l8.748 74.83c.222 1.999 2.076 3.405 4.152 3.183l40.182-4.885c-.964-24.796-9.786-74.239-9.86-74.165z" fill="#60BB55"/><path fill-rule="evenodd" clip-rule="evenodd" d="M149.906 118.056s-4.152-31.827-6.228-50.331c-.222-1.999-1.482-2.369-2.965-2.22-5.041.37-11.047.666-16.088 1.554l-5.857 1.184c-5.708 1.406-10.082 2.665-14.234 5.921-5.19-2.516-11.936-2.59-18.09-2.664l-6.005.148c-6.08.37-11.64 1.11-17.496 1.776-.148 0-.964.074-1.409.518-.445.444-.222 1.259-.222 1.259l8.748 74.756c.222 1.999 2.076 3.405 4.152 3.183l33.213-3.997 6.895-.814 12.603-1.555c14.531-1.628 24.762-13.175 22.983-28.718z" fill="url(#paint93_linear)"/><path opacity=".4" fill-rule="evenodd" clip-rule="evenodd" d="M137.451 72.166s-2.076 5.773-10.454 6.661c-8.377.889-9.119-4.367-9.119-4.367s2.966 2.591 9.49 1.85c6.598-.665 10.083-4.144 10.083-4.144zM74.286 83.268s4.819 3.923 12.455.519c7.636-3.405 5.56-8.216 5.56-8.216s-1.186 3.7-7.191 6.365-10.824 1.332-10.824 1.332z" fill="#1E5C1D"/><path opacity=".8" fill-rule="evenodd" clip-rule="evenodd" d="M144.568 75.2a431.34 431.34 0 0 0-.89-7.475c-.222-1.999-1.482-2.369-2.965-2.22-5.041.37-11.047.666-16.088 1.554l-5.857 1.184c-5.708 1.406-10.082 2.665-14.234 5.921-5.19-2.516-11.936-2.59-18.09-2.664l-6.005.148c-3.188.148-6.227.444-9.193.814 5.412-.222 27.134-.74 33.807 4.07 0 0 8.6-8.289 34.622-9.03 0 0 2.15-.147 3.04 2.073 1.038 2.665 1.631 5.107 1.853 5.626z" fill="url(#paint94_linear)"/><path fill-rule="evenodd" clip-rule="evenodd" d="M116.173 116.576c-17.274.074-31.138 12.138-31.063 28.866 0 2.147.296 4.293.741 6.292l41.146-4.96c8.007-.814 14.68-4.811 18.757-10.732-4.3-11.843-15.939-19.54-29.581-19.466z" fill="#61BA56"/><path fill-rule="evenodd" clip-rule="evenodd" d="M85.332 148.403v.222c.148 1.036.297 2.072.52 3.109l29.135-3.553c-.371-9.474-2.076-20.725-3.633-31.235-12.084 1.85-21.796 9.4-25.058 20.28 0 .074-.074.222-.074.296l-.223.889c-.074.148-.074.37-.148.518-.074.296-.148.518-.148.814-.074.222-.074.444-.148.666-.075.222-.075.444-.149.666-.074.296-.074.518-.074.814 0 .222-.074.37-.074.592 0 .297-.074.667-.074.963v1.998c0 .518 0 1.11.074 1.628 0 .445 0 .889.074 1.333z" fill="#84C368"/><path fill-rule="evenodd" clip-rule="evenodd" d="M85.332 148.403v.222c.148 1.036.297 2.072.52 3.109l29.135-3.553c-.371-9.474-2.076-20.725-3.633-31.235-12.084 1.85-21.796 9.4-25.058 20.28 0 .074-.074.222-.074.296l-.223.889c-.074.148-.074.37-.148.518-.074.296-.148.518-.148.814-.074.222-.074.444-.148.666-.075.222-.075.444-.149.666-.074.296-.074.518-.074.814 0 .222-.074.37-.074.592 0 .297-.074.667-.074.963v1.998c0 .518 0 1.11.074 1.628 0 .445 0 .889.074 1.333z" fill="url(#paint95_linear)"/><path fill-rule="evenodd" clip-rule="evenodd" d="M125.515 82.602c8.971-1.184 17.2 5.033 18.386 13.841 1.187 8.808-5.189 16.876-14.16 18.06-8.97 1.185-17.2-5.033-18.386-13.841s5.116-16.876 14.16-18.06z" fill="#fff"/><path fill-rule="evenodd" clip-rule="evenodd" d="M131.668 109.988c-8.971 1.185-17.2-5.033-18.386-13.84a14.756 14.756 0 0 1 .371-5.996 15.52 15.52 0 0 0-2.299 10.51c1.186 8.808 9.416 15.025 18.386 13.841a16.364 16.364 0 0 0 13.79-12.064c-2.521 3.996-6.747 6.883-11.862 7.549z" fill="url(#paint96_linear)"/><path fill-rule="evenodd" clip-rule="evenodd" d="M129.963 88.153c6.079-.444 11.343 3.923 11.862 9.77.445 5.848-4.078 11.029-10.083 11.473-6.079.444-11.343-3.923-11.862-9.77-.148-1.925.223-3.849 1.038-5.477.964 1.85 2.966 2.96 5.19 2.812 2.891-.222 5.115-2.664 4.893-5.55-.074-1.26-.667-2.37-1.557-3.258h.519z" fill="#303030"/><path fill-rule="evenodd" clip-rule="evenodd" d="M86.296 86.6c9.786-1.26 18.757 5.476 20.091 14.95 1.261 9.474-5.634 18.208-15.42 19.467-9.787 1.258-18.757-5.478-20.092-14.952-1.26-9.548 5.635-18.282 15.421-19.466z" fill="#fff"/><path fill-rule="evenodd" clip-rule="evenodd" d="M94.155 115.91c-9.787 1.258-18.757-5.404-20.092-14.952-.445-3.034 0-5.995 1.112-8.66-3.262 3.627-4.967 8.512-4.225 13.619 1.26 9.474 10.305 16.21 20.09 14.952 6.673-.815 12.011-5.182 14.309-10.807a17.643 17.643 0 0 1-11.194 5.848z" fill="url(#paint97_linear)"/><path fill-rule="evenodd" clip-rule="evenodd" d="M92.45 92.89c6.301-.518 11.861 4.071 12.38 10.215.519 6.143-4.225 11.472-10.527 11.99-6.302.518-11.862-4.071-12.381-10.214-.148-2.072.222-3.997 1.112-5.7.964 1.925 3.04 3.11 5.412 2.962 3.04-.223 5.338-2.813 5.041-5.774-.074-1.332-.741-2.516-1.63-3.33.222-.075.444-.148.592-.148z" fill="#303030"/><g opacity=".5"><path opacity=".5" d="M125.44 122.127c-1.482-7.772-6.375-10.954-11.862-11.176-8.377-.371-11.417 8.659-11.417 8.659-1.186 2.887 6.821 9.104 10.899 9.326 4.893.223 10.601-6.735 10.601-6.735s1.335-.074 1.779-.074z" fill="url(#paint98_radial)"/><path opacity=".5" d="M125.44 122.127c-1.482-7.772-6.375-10.954-11.862-11.176-8.377-.371-11.417 8.659-11.417 8.659-1.186 2.887 6.821 9.104 10.899 9.326 4.893.223 10.601-6.735 10.601-6.735s1.335-.074 1.779-.074z" fill="url(#paint99_linear)"/></g><path d="M125.811 120.869c-1.483-7.772-6.376-10.955-11.862-11.177-8.377-.37-11.417 8.66-11.417 8.66-1.186 2.887 6.821 9.104 10.898 9.326 4.893.222 10.231-7.253 10.231-7.253s1.705.444 2.15.444z" fill="url(#paint100_radial)"/><path d="M125.811 120.869c-1.483-7.772-6.376-10.955-11.862-11.177-8.377-.37-11.417 8.66-11.417 8.66-1.186 2.887 6.821 9.104 10.898 9.326 4.893.222 10.231-7.253 10.231-7.253s1.705.444 2.15.444z" fill="url(#paint101_radial)"/><path opacity=".8" fill-rule="evenodd" clip-rule="evenodd" d="M120.547 111.839c-1.927-1.333-4.225-1.999-6.598-2.147-1.112-.074-2.15.074-3.114.296 1.409 1.851 4.078 3.331 7.34 3.627 1.483.148 2.891.074 4.152-.222a18.987 18.987 0 0 0-1.78-1.554z" fill="url(#paint102_linear)"/><path d="M109.427 123.089c-.445-2.442 14.308-2.738 14.308-2.738-10.527-6.218-13.419-3.257-16.829-4.071-1.928-.444-2.002-1.555-1.705-2.443-1.928 2.221-2.669 4.589-2.669 4.589-1.186 2.887 6.821 9.104 10.898 9.326h.741c-2.224-.444-4.299-2.442-4.744-4.663z" fill="url(#paint103_linear)"/><path d="M123.291 119.981c.37.148.667.296 1.037.518l-.667-1.037c-.074 0-.148.222-.37.519z" fill="url(#paint104_linear)"/><path d="M106.535 118.278s.445 2.295 1.261 2.813c0 0 7.636-1.185 15.939-.74-9.638-4.145-17.2-2.073-17.2-2.073z" fill="url(#paint105_linear)"/><path d="M106.535 118.278s.445 2.295 1.261 2.813c0 0 7.636-1.185 15.939-.74-9.638-4.145-17.2-2.073-17.2-2.073z" fill="url(#paint106_linear)"/><path d="M83.627 148.181l-2.817-7.772-.668.518.816-.592-15.791-22.353c.222-.296.37-.666.37-1.11v-.296c-.074-.222-.148-.444-.296-.592l-.074-.074-.075-.074-1.408-2.073-.964-1.48-13.419-19.91c-1.408-2.147-4.003-2.961-6.302-2.295-.296.074-.593.222-.89.37h-.073c-.297.148-.593.296-.816.518l-1.038.814c-.148.148-.296.222-.445.37-1.038.962-1.63 2.147-1.779 3.48 0 .221 0 .37-.074.591 0 1.332.37 2.665 1.26 3.701l1.26 1.554-1.705 1.259.075.074c-.297.444-.297 1.036 0 1.554l11.046 14.803c.445.592 1.26.74 1.854.296.593-.444.741-1.258.296-1.85l-9.712-13.027.445-.37L54.491 118.5l2.891 3.479.223.222c.444.37 1.038.444 1.556.37.075 0 .075-.074.149-.074l16.977 21.465.148-.074 6.673 4.959.519-.666z" fill="url(#paint107_linear)"/><path d="M35.215 105.325l2.743-2.146 2.076 2.812-1.408 1.037 9.712 13.027c.444.592.296 1.406-.297 1.85-.593.444-1.408.296-1.853-.296L35.14 106.806c-.296-.37-.222-1.037.074-1.481z" fill="url(#paint108_linear)"/><path d="M72.655 146.478l4.745-3.552-22.835-32.346-6.45 4.812 24.54 31.086z" fill="url(#paint109_linear)"/><path d="M56.196 124.718l5.041-3.775c.742-.592.964-1.629.445-2.369l-15.94-23.611c-1.778-2.665-5.485-3.33-8.08-1.406l-1.038.814c-2.595 1.924-3.04 5.625-.964 8.142l18.164 21.982c.519.667 1.557.815 2.372.223z" fill="url(#paint110_linear)"/><path d="M79.475 151.289l.593-.444-2.817-7.771-4.448 3.256 6.672 4.959z" fill="url(#paint111_linear)"/><path d="M36.55 94.297l1.038-.814c.519-.444 1.186-.666 1.779-.888-.741 2.516.148 6.735 5.56 14.063 6.97 9.326 10.676 14.285 12.604 16.95l-1.483 1.11c-.742.592-1.78.444-2.447-.296l-18.015-21.983c-2.076-2.443-1.631-6.143.964-8.142z" fill="url(#paint112_linear)"/><path d="M64.425 124.569l9.045 12.805c-2.447.222-5.338-1.258-7.488-4.071-2.224-2.96-2.743-6.439-1.557-8.734z" fill="url(#paint113_linear)"/><path d="M53.75 124.421l-2.892-3.478 8.23-6.144 2.52 3.701c.519.814.37 1.851-.445 2.369l-5.041 3.774c-.742.667-1.78.519-2.373-.222z" fill="url(#paint114_linear)"/><path d="M52.563 123.015l-.519-.666 8.081-6.069.52.74-8.082 5.995z" fill="url(#paint115_linear)"/><path d="M53.675 124.347l-.518-.666 7.932-5.921.52.74-7.934 5.847z" fill="url(#paint116_linear)"/><path d="M140.935 142.333s3.855-14.803 16.459-31.531c12.529-16.727 27.282-21.538 27.282-21.538l51.303 18.8s-23.724 3.849-35.437 19.096c-8.229 10.732-14.309 31.531-14.309 31.531l-45.298-16.358z" fill="url(#paint117_linear)"/><path d="M138.637 144.776s2.817-15.025 14.16-32.567 25.726-23.39 25.726-23.39l52.489 15.174s-23.427 5.477-34.029 21.539c-7.414 11.324-12.084 32.493-12.084 32.493l-46.262-13.249z" fill="url(#paint118_linear)"/><path d="M163.473 102.587s3.188-3.257 6.302-5.996c2.817-2.442 7.191-4.81 7.191-4.81l15.421 4.588s-4.671 1.925-8.304 5.107c-3.113 2.739-5.263 6.144-5.263 6.144l-15.347-5.033z" fill="#FB2"/><path d="M164.733 108.212c-.519.814-.222 1.776.668 2.147l5.041 2.072c.89.37 2.076 0 2.669-.814l4.967-7.402c.519-.814.223-1.776-.667-2.146l-5.041-2.073c-.89-.37-2.076 0-2.669.814l-4.968 7.402z" fill="#00A99D"/><path d="M175.854 101.921s.667 1.702-.964 3.256c-.667.666-1.853-.37-2.002-1.11.594-.962 1.78-2.665 1.78-2.665l1.186.519z" fill="#00736A"/><path d="M173.63 101.032s-2.224.518-2.891 2.443c-.297.814 1.408.962 2.224.666.593-.962 1.779-2.665 1.779-2.665l-1.112-.444z" fill="#00736A"/><path d="M172.444 102.365c-.445.666-.223 1.48.519 1.776.741.296 1.779 0 2.224-.666.445-.666.222-1.48-.519-1.776-.816-.371-1.779-.075-2.224.666z" fill="#EFBCAC"/><path d="M176.818 100.588l-2.15 2.665c-.297.444-.89.592-1.409.444-.445-.222-.667-.74-.371-1.11l1.335-2.813 2.595.814z" fill="#E0A390"/><path d="M175.706 105.473c-.074.444-.074 4.071 0 4.293 0 .074-.223.444-.074.518-.223.222-.075.296.519.593 1.334.666 2.224-.223 2.446-.445.223-.222.297-.296 0-.518.371-.37.074-.444.074-.444.074-.222-.222-1.628-.222-1.924-.074-.296.296-3.331.148-4.071-.148-.74-1.038-1.184-1.038-1.184s-1.631 1.998-1.853 3.182z" fill="#00736A"/><path d="M176.521 109.396c.445.148.445-.296 2.15.518.297.222.223.296 0 .518-.222.223-1.112 1.111-2.446.445-.593-.296-.742-.37-.519-.593-.148-.074.074-.444.074-.518-.074-.148-.074-1.406-.074-2.59.074.592.445 2.072.815 2.22z" fill="#004A44"/><path d="M178.523 110.506s.445-.74-.445-1.258c-.741-.444-3.114-1.184-3.262-1.11-.148.074-1.112.814-1.038 1.332.074.518 2.595 1.481 2.966 1.629.37.148 1.334.148 1.779-.593z" fill="#FCD6CD"/><path d="M176.744 111.099c.371.148 1.334.074 1.779-.593 0 0 .074-.222.074-.444 0 0-.889.593-1.482.519-.594-.075-3.114-1.629-3.114-1.629-.149.222-.223.37-.223.518.074.518 2.595 1.481 2.966 1.629z" fill="#EABEB5"/><path d="M176.002 110.285c-.222-.296-.889-.815-.963-1.111-.075-.296.37-.666.519-.814-.371-.074-.668-.148-.742-.148-.148.074-1.112.814-1.038 1.332.074.297 1.112.815 1.928 1.185.222-.148.445-.296.296-.444z" fill="#EABEB5"/><path d="M174.446 95.777c-.297.074-.594.222-.742.444.297-.444.593-.666 1.038-.962.148-.074.445-.148.593-.148.445-.37 1.112-.666 1.705-.814-.222.074-.444.222-.519.444.371-.222.89-.222 1.335-.222 1.334.148 2.521.814 3.262 1.702-.297-.148-.297-.148-.519-.296.519.296.593.74.741 1.258.074.519-.148 1.259-.37 1.85-.075-.221-.075-.295-.075-.37-.296.667-.741 1.037-1.26 1.629-1.557-.666-3.039-1.258-4.596-1.924-.223-.074-.371-.148-.593-.222-.223 0-.668.148-.816 0-.222-.148 0-.592.074-.814-.074-.445.223-1.037.742-1.555z" fill="#5F5042"/><path d="M174.371 96.665c-.296.148-.815.444-.815.74l.519.222.296-.962z" fill="#4F4034"/><path d="M173.259 98.59c.297.148.742 0 .89-.296l.074-.148c.222-.296.074-.593-.222-.74-.297-.149-.742 0-.89.295l-.074.149c-.148.296-.074.592.222.74z" fill="#DFA28F"/><path d="M174.001 97.553c.296.148.37.37.222.667l-.074.148c-.148.222-.519.37-.816.222-.296-.148-.37-.37-.222-.666l.074-.148c.148-.296.519-.37.816-.222zm.074-.147a.918.918 0 0 0-1.038.295l-.074.149c-.223.296-.074.74.296.888.371.148.816 0 1.038-.296l.074-.148c.223-.37.074-.74-.296-.888z" fill="#EFBCAC"/><path d="M178.597 100.81c.297.148.741 0 .89-.296l.074-.148c.222-.296.074-.592-.223-.74-.296-.148-.741 0-.889.296l-.074.148c-.223.222-.074.592.222.74z" fill="#E0A390"/><path d="M179.264 99.7c.297.148.371.37.223.666l-.074.148c-.149.222-.519.37-.816.222-.296-.148-.371-.37-.222-.666l.074-.148c.222-.222.593-.296.815-.222zm.149-.148a.918.918 0 0 0-1.038.296l-.074.148c-.223.296-.075.74.296.888.371.148.816 0 1.038-.296l.074-.148c.148-.296.074-.74-.296-.888z" fill="#EFBCAC"/><path d="M179.783 99.182s-.889 1.702-2.372 2.665c-.593.37-1.705.814-3.04.296-1.334-.519-1.483-1.555-1.408-2.147.222-1.48 1.482-3.035 1.482-3.035l1.409-.666 3.559 1.48.444 1.259-.074.148z" fill="#FCD6CD"/><path d="M174.816 98.22c.519-.075.816.222.816.222.074.074 0 .074 0 .148-.075.075-.149.075-.149 0 0 0-.222-.222-.667-.148-.074 0-.148 0-.148-.074-.074-.074 0-.074.148-.148-.074 0-.074 0 0 0zm3.336 1.406c.075.074 0 .148-.074.222-.074 0-.148 0-.148-.074-.148-.296-.519-.37-.519-.37-.074 0-.148-.074-.074-.148 0-.074.074-.074.148-.074 0 0 .445.074.667.444z" fill="#4D4135"/><path d="M176.744 99.996c.148-.148.296-.222.519-.148.148.074.222.222.148.371-.148.148-.297.222-.519.148-.148 0-.222-.148-.148-.37 0 .073 0 .073 0 0 0 .073 0 .073 0 0 0 .073 0 .073 0 0zm-2.224-.888c.148-.148.37-.222.519-.148.148.074.222.222.148.37-.148.149-.297.223-.519.149-.223 0-.297-.223-.148-.37 0 0-.075 0 0 0z" fill="#332A2A"/><path d="M174 97.554s1.631.148 2.595-.519c-.074.445.519 1.407.519 1.407l.297-.666s-.074.74 1.038 1.85c.148.148 0-1.036 0-1.036s.667 1.48.815 1.554c.667-.592 1.483-1.924 1.038-2.294-.741-.296-4.819-1.999-4.819-1.999s-1.705 1.036-1.483 1.703z" fill="#5F5042"/><path d="M178.449 95.186c-.074.074-.593.074-.593.074s.296.37.222.518a5.305 5.305 0 0 0-.445-.518s-.296.074-.444.222c0-.296.296-.296.296-.296s-.445-.296-.667-.222c.296-.222.815.074.815.074s.445 0 .816.148z" fill="#4F4034"/><path d="M162.954 105.399s-.445-.296.223-1.184c0-.296.37-.37.518-.37 0-.222.149-.444.519-.518.297-.074 2.076-.962 2.076-.962l3.707-2.147s1.409-.666 2.15-.222c.445.296-.445 1.406-.445 1.406s-.963 1.333-1.927 1.777c-.964.37-2.521 1.332-2.817 1.406a4.954 4.954 0 0 1-.89.444c-.519.148-1.779 1.259-3.114.37z" fill="#00736A"/><path d="M162.806 104.733c.296-.444.889-.666 1.112-.74.296-.074.964-.074 1.631.296a13.273 13.273 0 0 0 2.743-.74l.815-.222c-.889.444-2.075 1.11-2.298 1.184a4.94 4.94 0 0 1-.889.444c-.371.148-1.112 1.481-2.521.592.074.074-.816.074-.593-.814z" fill="#004A44"/><path d="M163.177 104.289s.741-.74 1.556-.444c.519.148 2.595 1.999 2.818 2.295.222.296-.816 1.184-1.187 1.184-.37 0-2.965-1.406-3.187-1.628-.223-.148-.519-.741 0-1.407z" fill="#FCD6CD"/><path d="M165.104 106.288c1.038.518 1.631.666 1.928.592-.223.222-.519.37-.668.37-.37 0-2.965-1.407-3.187-1.629-.297-.148-.594-.74-.075-1.406 0 0 .371-.37.816-.518 0 0-.445.444-.371 1.036.148.518.667 1.11 1.557 1.555z" fill="#EABEB5"/><path d="M164.437 103.919s.741.297 1.186.667c.371.37-1.334-.371-1.186-.667z" fill="#FFEAE6"/><path d="M166.957 105.991c.075 0 .149.074.223.148 0 0 .889.222 1.038.371.593.518.593 1.036.815 1.184.074.074.668.518.816.666.148.148.074.296-.074.296-.223 0-3.633-1.332-3.633-1.332h-.074c-.371-.148-.519-.592-.297-.963.297-.37.816-.518 1.186-.37z" fill="#FCD6CD"/><path d="M166.957 105.991c-.222 0-.741.074-.889.296-.223.297-.445.667.222 1.111.074 0 .148.074.223.074a3.089 3.089 0 0 1-.371-.148h-.074c-.371-.148-.519-.592-.297-.963.297-.37.816-.518 1.186-.37zm2.744 2.665c-.149 0-1.557-.518-2.595-.888 1.038.37 2.595.74 2.595.74s.074 0 .074-.074c.148.074.074.222-.074.222z" fill="#EABEB5"/><path d="M175.706 108.286c.148-.148.074-.37-.074-.444l-.89-.444c-.148-.074-.445 0-.593.148-.148.148-.074.37.074.444l.89.444c.222.074.519 0 .593-.148z" fill="#FCD6CD"/><path d="M175.113 109.101a.358.358 0 0 0 0-.518l-.742-.592c-.148-.148-.445-.074-.593 0a.358.358 0 0 0 0 .518l.742.592c.148.148.444.074.593 0z" fill="#FCD6CD"/><path d="M174.52 109.1l-.445-.74c-.074-.148-.223-.222-.371-.148-.074.148 0 .222.074.296l.742.592z" fill="#EABEB5"/><path d="M174.297 109.692c.223-.074.297-.296.223-.444l-.445-.814c-.074-.148-.371-.222-.519-.148-.223.074-.297.296-.223.444l.445.814c.074.222.297.296.519.148z" fill="#FCD6CD"/><path d="M188.087 99.996l-1.261.888 17.571 4.885 1.186-.888-17.496-4.885zm-27.579 6.958l14.456 4.441-2.001 2.442-14.457-4.441 2.002-2.442zm17.051 5.329l14.976 4.515-2.002 2.368-14.976-4.515 2.002-2.368zm-19.646-1.332l14.308 4.293-1.927 2.516-14.309-4.293 1.928-2.516zm16.829 5.107l14.828 4.367-1.928 2.442-14.828-4.293 1.928-2.516zm-19.721-.667l14.383 4.293-2.002 2.443-14.382-4.293 2.001-2.443zm16.904 5.108l14.901 4.293-1.927 2.442-14.902-4.293 1.928-2.442z" fill="#CECECE"/><path d="M136.042 147.737s1.705-15.174 11.788-33.53c10.009-18.356 23.946-25.165 23.946-25.165l53.454 11.324s-22.983 7.18-32.324 23.907c-6.599 11.769-9.712 33.234-9.712 33.234l-47.152-9.77z" fill="url(#paint119_linear)"/><path d="M161.175 139.225c-11.417-.296-17.274-6.07-20.091-10.437-4.152 11.103-5.042 18.949-5.042 18.949l47.078 9.844s3.113-21.465 9.712-33.234c.889-1.554 1.853-2.96 2.891-4.367-7.488 7.476-21.648 19.615-34.548 19.245z" fill="url(#paint120_linear)"/><path d="M181.044 137.67c-.149 0-.371 0-.519-.074-4.523-1.48-28.617-5.995-28.84-6.069-.889-.148-1.482-1.036-1.334-1.924.148-.889 1.038-1.481 1.927-1.333.964.222 24.54 4.663 29.285 6.144.889.296 1.334 1.258 1.038 2.072-.223.74-.816 1.184-1.557 1.184zm-2.669 7.18c-.148 0-.371 0-.519-.074-4.523-1.48-28.617-5.995-28.84-6.069-.889-.148-1.482-1.037-1.334-1.925.148-.888 1.038-1.48 1.927-1.332.964.222 24.54 4.663 29.285 6.143.889.296 1.334 1.259 1.038 2.073a1.646 1.646 0 0 1-1.557 1.184z" fill="#7ED661"/><path clip-rule="evenodd" d="M162.435 110.432c-2.298 1.703-7.043 6.44-6.375 9.549.444 1.998 16.532 6.587 25.206 6.365 3.707-.074 7.488-7.698 6.598-9.548-.444-1.036-22.908-8.216-25.429-6.366z" stroke="#7ED661" stroke-width="3" stroke-miterlimit="10" stroke-linecap="round" stroke-linejoin="round"/></g><defs><linearGradient id="paint0_linear" x1="135.016" y1="-6.154" x2="125.703" y2="184.693" gradientUnits="userSpaceOnUse"><stop stop-color="#F2FFFF"/><stop offset=".001" stop-color="#F1FFFF"/><stop offset=".03" stop-color="#E2F9F9"/><stop offset=".063" stop-color="#D9F6F6"/><stop offset=".11" stop-color="#D6F5F5"/><stop offset=".595" stop-color="#FCDAD5"/></linearGradient><radialGradient id="paint1_radial" cx="0" cy="0" r="1" gradientUnits="userSpaceOnUse" gradientTransform="matrix(13.6489 -1.48178 1.47942 13.62713 79.501 69.541)"><stop stop-color="#DDD2E3"/><stop offset="1" stop-color="#F5B9AA"/></radialGradient><linearGradient id="paint2_linear" x1="73.975" y1="63.924" x2="78.517" y2="77.254" gradientUnits="userSpaceOnUse"><stop stop-color="#90E0A2"/><stop offset=".017" stop-color="#92E0A5"/><stop offset=".375" stop-color="#B2D9D5"/><stop offset=".648" stop-color="#C6D5F3"/><stop offset=".802" stop-color="#CDD4FE"/></linearGradient><radialGradient id="paint3_radial" cx="0" cy="0" r="1" gradientUnits="userSpaceOnUse" gradientTransform="matrix(39.94735 -3.613 3.60719 39.8831 93.312 98.198)"><stop stop-color="#DDD2E3"/><stop offset="1" stop-color="#F5B9AA"/></radialGradient><radialGradient id="paint4_radial" cx="0" cy="0" r="1" gradientUnits="userSpaceOnUse" gradientTransform="matrix(35.43426 -3.20495 3.1998 35.37729 107.302 91.234)"><stop stop-color="#DDD2E3"/><stop offset="1" stop-color="#F5B9AA"/></radialGradient><linearGradient id="paint5_linear" x1="109.864" y1="97.781" x2="102.769" y2="98.346" gradientUnits="userSpaceOnUse"><stop stop-color="#FFE9C2"/><stop offset=".735" stop-color="#E9BE87"/><stop offset="1" stop-color="#F5B9AA"/></linearGradient><linearGradient id="paint6_linear" x1="104.997" y1="91.759" x2="105.694" y2="104.118" gradientUnits="userSpaceOnUse"><stop stop-color="#B6ACDA"/><stop offset="1" stop-color="#D1D6E9"/></linearGradient><linearGradient id="paint7_linear" x1="105.014" y1="93.536" x2="105.898" y2="109.212" gradientUnits="userSpaceOnUse"><stop stop-color="#E99B97"/><stop offset="1" stop-color="#A799CF"/></linearGradient><linearGradient id="paint8_linear" x1="105.613" y1="93.52" x2="106.494" y2="109.132" gradientUnits="userSpaceOnUse"><stop stop-color="#E99B97"/><stop offset="1" stop-color="#A799CF"/></linearGradient><linearGradient id="paint9_linear" x1="105.013" y1="93.506" x2="105.9" y2="109.238" gradientUnits="userSpaceOnUse"><stop stop-color="#E99B97"/><stop offset="1" stop-color="#A799CF"/></linearGradient><linearGradient id="paint10_linear" x1="58.776" y1="131.49" x2="72.599" y2="114.291" gradientUnits="userSpaceOnUse"><stop stop-color="#C7B6F3"/><stop offset="1" stop-color="#F5A5AD"/></linearGradient><linearGradient id="paint11_linear" x1="119.746" y1="89.51" x2="86.184" y2="126.179" gradientUnits="userSpaceOnUse"><stop stop-color="#E99B97"/><stop offset="1" stop-color="#A799CF"/></linearGradient><linearGradient id="paint12_linear" x1="74.738" y1="77.037" x2="80.777" y2="103.064" gradientUnits="userSpaceOnUse"><stop stop-color="#90E0A2"/><stop offset=".017" stop-color="#92E0A5"/><stop offset=".375" stop-color="#B2D9D5"/><stop offset=".648" stop-color="#C6D5F3"/><stop offset=".802" stop-color="#CDD4FE"/></linearGradient><linearGradient id="paint13_linear" x1="106.602" y1="113.056" x2="113.117" y2="145.584" gradientUnits="userSpaceOnUse"><stop stop-color="#E99B97"/><stop offset="1" stop-color="#A799CF"/></linearGradient><radialGradient id="paint14_radial" cx="0" cy="0" r="1" gradientUnits="userSpaceOnUse" gradientTransform="matrix(.68088 -.13958 .15072 .73518 113.103 123.85)"><stop stop-color="#E9B975"/><stop offset="1" stop-color="#F59079"/></radialGradient><linearGradient id="paint15_linear" x1="110.937" y1="98.314" x2="107.901" y2="106.576" gradientUnits="userSpaceOnUse"><stop stop-color="#F3B9A9"/><stop offset="1" stop-color="#F59079"/></linearGradient><linearGradient id="paint16_linear" x1="114.008" y1="99.442" x2="110.971" y2="107.704" gradientUnits="userSpaceOnUse"><stop stop-color="#F3B9A9"/><stop offset="1" stop-color="#F59079"/></linearGradient><linearGradient id="paint17_linear" x1="114.798" y1="99.733" x2="111.761" y2="107.995" gradientUnits="userSpaceOnUse"><stop stop-color="#F3B9A9"/><stop offset="1" stop-color="#F59079"/></linearGradient><linearGradient id="paint18_linear" x1="76.205" y1="122.381" x2="73.168" y2="130.643" gradientUnits="userSpaceOnUse"><stop stop-color="#F3B9A9"/><stop offset="1" stop-color="#F59079"/></linearGradient><linearGradient id="paint19_linear" x1="79.275" y1="123.509" x2="76.239" y2="131.771" gradientUnits="userSpaceOnUse"><stop stop-color="#F3B9A9"/><stop offset="1" stop-color="#F59079"/></linearGradient><linearGradient id="paint20_linear" x1="80.066" y1="123.8" x2="77.029" y2="132.062" gradientUnits="userSpaceOnUse"><stop stop-color="#F3B9A9"/><stop offset="1" stop-color="#F59079"/></linearGradient><linearGradient id="paint21_linear" x1="76.039" y1="78.165" x2="73.002" y2="86.427" gradientUnits="userSpaceOnUse"><stop stop-color="#C7B6F3"/><stop offset="1" stop-color="#F5A5AD"/></linearGradient><linearGradient id="paint22_linear" x1="79.109" y1="79.292" x2="76.073" y2="87.555" gradientUnits="userSpaceOnUse"><stop stop-color="#C7B6F3"/><stop offset="1" stop-color="#F5A5AD"/></linearGradient><linearGradient id="paint23_linear" x1="79.899" y1="79.583" x2="76.862" y2="87.845" gradientUnits="userSpaceOnUse"><stop stop-color="#C7B6F3"/><stop offset="1" stop-color="#F5A5AD"/></linearGradient><linearGradient id="paint24_linear" x1="59.397" y1="27.995" x2="66.184" y2="81.827" gradientUnits="userSpaceOnUse"><stop stop-color="#fff"/><stop offset=".999" stop-color="#fff" stop-opacity="0"/></linearGradient><linearGradient id="paint25_linear" x1="232.444" y1="58.615" x2="237.317" y2="97.261" gradientUnits="userSpaceOnUse"><stop stop-color="#fff"/><stop offset=".999" stop-color="#fff" stop-opacity="0"/></linearGradient><linearGradient id="paint26_linear" x1="102.971" y1="58.822" x2="109.758" y2="112.653" gradientUnits="userSpaceOnUse"><stop stop-color="#fff"/><stop offset=".999" stop-color="#fff" stop-opacity="0"/></linearGradient><linearGradient id="paint27_linear" x1="21.077" y1="110.347" x2="25.217" y2="139.591" gradientUnits="userSpaceOnUse"><stop offset=".017" stop-color="#EEC9C3"/><stop offset=".172" stop-color="#DFBFC4"/><stop offset=".47" stop-color="#C8B0C6"/><stop offset=".752" stop-color="#BBA7C7"/><stop offset="1" stop-color="#B6A4C7"/></linearGradient><linearGradient id="paint28_linear" x1="29.058" y1="102.682" x2="19.033" y2="93.715" gradientUnits="userSpaceOnUse"><stop stop-color="#90E0A2"/><stop offset=".017" stop-color="#92E0A5"/><stop offset=".375" stop-color="#B2D9D5"/><stop offset=".648" stop-color="#C6D5F3"/><stop offset=".802" stop-color="#CDD4FE"/></linearGradient><linearGradient id="paint29_linear" x1="17.757" y1="92.586" x2="34.804" y2="109.696" gradientUnits="userSpaceOnUse"><stop offset=".149" stop-color="#B8DBD4" stop-opacity="0"/><stop offset=".274" stop-color="#9ED7C4" stop-opacity=".152"/><stop offset=".427" stop-color="#86D4B4" stop-opacity=".338"/><stop offset=".589" stop-color="#75D2AA" stop-opacity=".534"/><stop offset=".763" stop-color="#6AD0A3" stop-opacity=".746"/><stop offset=".972" stop-color="#67D0A1"/></linearGradient><linearGradient id="paint30_linear" x1="12.216" y1="92.983" x2="13.677" y2="101.372" gradientUnits="userSpaceOnUse"><stop offset=".001" stop-color="#FF0" stop-opacity=".9"/><stop offset=".09" stop-color="#FFFF0D" stop-opacity=".82"/><stop offset=".255" stop-color="#FFFF2F" stop-opacity=".671"/><stop offset=".477" stop-color="#FF6" stop-opacity=".471"/><stop offset=".745" stop-color="#FFFFB1" stop-opacity=".23"/><stop offset="1" stop-color="#fff" stop-opacity="0"/></linearGradient><linearGradient id="paint31_linear" x1="19.602" y1="86.004" x2="21.063" y2="94.393" gradientUnits="userSpaceOnUse"><stop offset=".001" stop-color="#FF0" stop-opacity=".9"/><stop offset=".09" stop-color="#FFFF0D" stop-opacity=".82"/><stop offset=".255" stop-color="#FFFF2F" stop-opacity=".671"/><stop offset=".477" stop-color="#FF6" stop-opacity=".471"/><stop offset=".745" stop-color="#FFFFB1" stop-opacity=".23"/><stop offset="1" stop-color="#fff" stop-opacity="0"/></linearGradient><linearGradient id="paint32_linear" x1="239.719" y1="116.606" x2="237.387" y2="138.276" gradientUnits="userSpaceOnUse"><stop offset=".017" stop-color="#EEC9C3"/><stop offset=".172" stop-color="#DFBFC4"/><stop offset=".47" stop-color="#C8B0C6"/><stop offset=".752" stop-color="#BBA7C7"/><stop offset="1" stop-color="#B6A4C7"/></linearGradient><linearGradient id="paint33_linear" x1="246.82" y1="112.567" x2="241.277" y2="104.339" gradientUnits="userSpaceOnUse"><stop stop-color="#90E0A2"/><stop offset=".017" stop-color="#92E0A5"/><stop offset=".375" stop-color="#B2D9D5"/><stop offset=".648" stop-color="#C6D5F3"/><stop offset=".802" stop-color="#CDD4FE"/></linearGradient><linearGradient id="paint34_linear" x1="240.571" y1="103.3" x2="249.66" y2="118.624" gradientUnits="userSpaceOnUse"><stop offset=".149" stop-color="#B8DBD4" stop-opacity="0"/><stop offset=".274" stop-color="#9ED7C4" stop-opacity=".152"/><stop offset=".427" stop-color="#86D4B4" stop-opacity=".338"/><stop offset=".589" stop-color="#75D2AA" stop-opacity=".534"/><stop offset=".763" stop-color="#6AD0A3" stop-opacity=".746"/><stop offset=".972" stop-color="#67D0A1"/></linearGradient><linearGradient id="paint35_linear" x1="236.534" y1="102.58" x2="236.061" y2="108.846" gradientUnits="userSpaceOnUse"><stop offset=".001" stop-color="#FF0" stop-opacity=".9"/><stop offset=".09" stop-color="#FFFF0D" stop-opacity=".82"/><stop offset=".255" stop-color="#FFFF2F" stop-opacity=".671"/><stop offset=".477" stop-color="#FF6" stop-opacity=".471"/><stop offset=".745" stop-color="#FFFFB1" stop-opacity=".23"/><stop offset="1" stop-color="#fff" stop-opacity="0"/></linearGradient><linearGradient id="paint36_linear" x1="243.085" y1="98.926" x2="242.612" y2="105.192" gradientUnits="userSpaceOnUse"><stop offset=".001" stop-color="#FF0" stop-opacity=".9"/><stop offset=".09" stop-color="#FFFF0D" stop-opacity=".82"/><stop offset=".255" stop-color="#FFFF2F" stop-opacity=".671"/><stop offset=".477" stop-color="#FF6" stop-opacity=".471"/><stop offset=".745" stop-color="#FFFFB1" stop-opacity=".23"/><stop offset="1" stop-color="#fff" stop-opacity="0"/></linearGradient><linearGradient id="paint37_linear" x1="41.803" y1="102.983" x2="40.454" y2="136.523" gradientUnits="userSpaceOnUse"><stop offset=".017" stop-color="#EEC9C3"/><stop offset=".172" stop-color="#DFBFC4"/><stop offset=".47" stop-color="#C8B0C6"/><stop offset=".752" stop-color="#BBA7C7"/><stop offset="1" stop-color="#B6A4C7"/></linearGradient><linearGradient id="paint38_linear" x1="52.297" y1="96.045" x2="42.927" y2="83.972" gradientUnits="userSpaceOnUse"><stop stop-color="#90E0A2"/><stop offset=".017" stop-color="#92E0A5"/><stop offset=".375" stop-color="#B2D9D5"/><stop offset=".648" stop-color="#C6D5F3"/><stop offset=".802" stop-color="#CDD4FE"/></linearGradient><linearGradient id="paint39_linear" x1="41.733" y1="82.449" x2="57.285" y2="105.059" gradientUnits="userSpaceOnUse"><stop offset=".149" stop-color="#B8DBD4" stop-opacity="0"/><stop offset=".274" stop-color="#9ED7C4" stop-opacity=".152"/><stop offset=".427" stop-color="#86D4B4" stop-opacity=".338"/><stop offset=".589" stop-color="#75D2AA" stop-opacity=".534"/><stop offset=".763" stop-color="#6AD0A3" stop-opacity=".746"/><stop offset=".972" stop-color="#67D0A1"/></linearGradient><linearGradient id="paint40_linear" x1="35.456" y1="81.759" x2="35.375" y2="91.437" gradientUnits="userSpaceOnUse"><stop offset=".001" stop-color="#FF0" stop-opacity=".9"/><stop offset=".09" stop-color="#FFFF0D" stop-opacity=".82"/><stop offset=".255" stop-color="#FFFF2F" stop-opacity=".671"/><stop offset=".477" stop-color="#FF6" stop-opacity=".471"/><stop offset=".745" stop-color="#FFFFB1" stop-opacity=".23"/><stop offset="1" stop-color="#fff" stop-opacity="0"/></linearGradient><linearGradient id="paint41_linear" x1="45.145" y1="75.467" x2="45.064" y2="85.145" gradientUnits="userSpaceOnUse"><stop offset=".001" stop-color="#FF0" stop-opacity=".9"/><stop offset=".09" stop-color="#FFFF0D" stop-opacity=".82"/><stop offset=".255" stop-color="#FFFF2F" stop-opacity=".671"/><stop offset=".477" stop-color="#FF6" stop-opacity=".471"/><stop offset=".745" stop-color="#FFFFB1" stop-opacity=".23"/><stop offset="1" stop-color="#fff" stop-opacity="0"/></linearGradient><linearGradient id="paint42_linear" x1="231.746" y1="151.041" x2="229.519" y2="118.078" gradientUnits="userSpaceOnUse"><stop stop-color="#C0B6E0"/><stop offset=".222" stop-color="#D5BEE0"/><stop offset=".593" stop-color="#F3C9DF"/><stop offset=".802" stop-color="#FECDDF"/></linearGradient><linearGradient id="paint43_linear" x1="228.717" y1="131.201" x2="228.717" y2="147.747" gradientUnits="userSpaceOnUse"><stop offset=".149" stop-color="#A860BF"/><stop offset="1" stop-color="#A860BF" stop-opacity="0"/></linearGradient><linearGradient id="paint44_linear" x1="32.274" y1="150.66" x2="29.942" y2="116.139" gradientUnits="userSpaceOnUse"><stop stop-color="#C0B6E0"/><stop offset=".222" stop-color="#D5BEE0"/><stop offset=".593" stop-color="#F3C9DF"/><stop offset=".802" stop-color="#FECDDF"/></linearGradient><linearGradient id="paint45_linear" x1="12.779" y1="150.208" x2="12.779" y2="150.515" gradientUnits="userSpaceOnUse"><stop offset=".149" stop-color="#A860BF"/><stop offset="1" stop-color="#A860BF" stop-opacity="0"/></linearGradient><linearGradient id="paint46_linear" x1="29.753" y1="126.272" x2="29.753" y2="149.034" gradientUnits="userSpaceOnUse"><stop offset=".149" stop-color="#A860BF"/><stop offset="1" stop-color="#A860BF" stop-opacity="0"/></linearGradient><linearGradient id="paint47_linear" x1="132.491" y1="93.45" x2="127.918" y2="169.418" gradientUnits="userSpaceOnUse"><stop stop-color="#ADE1F9"/><stop offset=".589" stop-color="#B7DAD1"/><stop offset="1" stop-color="#B9D882"/></linearGradient><linearGradient id="paint48_linear" x1="142.329" y1="200.818" x2="140.648" y2="183.982" gradientUnits="userSpaceOnUse"><stop stop-color="#F3B9A9"/><stop offset="1" stop-color="#F59079"/></linearGradient><linearGradient id="paint49_linear" x1="64.481" y1="140.464" x2="62.399" y2="184.267" gradientUnits="userSpaceOnUse"><stop offset=".018" stop-color="#ECE6BE"/><stop offset=".536" stop-color="#D3C1B4"/><stop offset="1" stop-color="#6693A1"/></linearGradient><linearGradient id="paint50_linear" x1="173.04" y1="145.625" x2="170.958" y2="189.428" gradientUnits="userSpaceOnUse"><stop offset=".018" stop-color="#ECE6BE"/><stop offset=".536" stop-color="#D3C1B4"/><stop offset="1" stop-color="#6693A1"/></linearGradient><linearGradient id="paint51_linear" x1="134.49" y1="143.792" x2="132.407" y2="187.595" gradientUnits="userSpaceOnUse"><stop offset=".018" stop-color="#ECE6BE"/><stop offset=".536" stop-color="#D3C1B4"/><stop offset="1" stop-color="#6693A1"/></linearGradient><linearGradient id="paint52_linear" x1="93.488" y1="141.843" x2="91.405" y2="185.646" gradientUnits="userSpaceOnUse"><stop offset=".018" stop-color="#ECE6BE"/><stop offset=".536" stop-color="#D3C1B4"/><stop offset="1" stop-color="#6693A1"/></linearGradient><linearGradient id="paint53_linear" x1="100.08" y1="142.156" x2="97.998" y2="185.96" gradientUnits="userSpaceOnUse"><stop offset=".018" stop-color="#ECE6BE"/><stop offset=".536" stop-color="#D3C1B4"/><stop offset="1" stop-color="#6693A1"/></linearGradient><linearGradient id="paint54_linear" x1="218.637" y1="147.793" x2="216.554" y2="191.596" gradientUnits="userSpaceOnUse"><stop offset=".018" stop-color="#ECE6BE"/><stop offset=".536" stop-color="#D3C1B4"/><stop offset="1" stop-color="#6693A1"/></linearGradient><linearGradient id="paint55_linear" x1="206.464" y1="147.214" x2="204.381" y2="191.017" gradientUnits="userSpaceOnUse"><stop offset=".018" stop-color="#ECE6BE"/><stop offset=".536" stop-color="#D3C1B4"/><stop offset="1" stop-color="#6693A1"/></linearGradient><linearGradient id="paint56_linear" x1="193.736" y1="146.609" x2="191.654" y2="190.412" gradientUnits="userSpaceOnUse"><stop offset=".018" stop-color="#ECE6BE"/><stop offset=".536" stop-color="#D3C1B4"/><stop offset="1" stop-color="#6693A1"/></linearGradient><linearGradient id="paint57_linear" x1="154.612" y1="144.749" x2="152.53" y2="188.552" gradientUnits="userSpaceOnUse"><stop offset=".018" stop-color="#ECE6BE"/><stop offset=".536" stop-color="#D3C1B4"/><stop offset="1" stop-color="#6693A1"/></linearGradient><linearGradient id="paint58_linear" x1="69.512" y1="140.703" x2="67.429" y2="184.506" gradientUnits="userSpaceOnUse"><stop offset=".018" stop-color="#ECE6BE"/><stop offset=".536" stop-color="#D3C1B4"/><stop offset="1" stop-color="#6693A1"/></linearGradient><linearGradient id="paint59_linear" x1="88.31" y1="141.597" x2="86.227" y2="185.4" gradientUnits="userSpaceOnUse"><stop offset=".018" stop-color="#ECE6BE"/><stop offset=".536" stop-color="#D3C1B4"/><stop offset="1" stop-color="#6693A1"/></linearGradient><linearGradient id="paint60_linear" x1="108.617" y1="142.562" x2="106.535" y2="186.365" gradientUnits="userSpaceOnUse"><stop offset=".018" stop-color="#ECE6BE"/><stop offset=".536" stop-color="#D3C1B4"/><stop offset="1" stop-color="#6693A1"/></linearGradient><linearGradient id="paint61_linear" x1="122.56" y1="143.225" x2="120.478" y2="187.028" gradientUnits="userSpaceOnUse"><stop offset=".018" stop-color="#ECE6BE"/><stop offset=".536" stop-color="#D3C1B4"/><stop offset="1" stop-color="#6693A1"/></linearGradient><linearGradient id="paint62_linear" x1="204.432" y1="147.117" x2="202.349" y2="190.921" gradientUnits="userSpaceOnUse"><stop offset=".018" stop-color="#ECE6BE"/><stop offset=".536" stop-color="#D3C1B4"/><stop offset="1" stop-color="#6693A1"/></linearGradient><linearGradient id="paint63_linear" x1="114.608" y1="142.847" x2="112.526" y2="186.65" gradientUnits="userSpaceOnUse"><stop offset=".018" stop-color="#ECE6BE"/><stop offset=".536" stop-color="#D3C1B4"/><stop offset="1" stop-color="#6693A1"/></linearGradient><linearGradient id="paint64_linear" x1="82.015" y1="141.298" x2="79.933" y2="185.101" gradientUnits="userSpaceOnUse"><stop offset=".018" stop-color="#ECE6BE"/><stop offset=".536" stop-color="#D3C1B4"/><stop offset="1" stop-color="#6693A1"/></linearGradient><linearGradient id="paint65_linear" x1="53.882" y1="139.96" x2="51.8" y2="183.763" gradientUnits="userSpaceOnUse"><stop offset=".018" stop-color="#ECE6BE"/><stop offset=".536" stop-color="#D3C1B4"/><stop offset="1" stop-color="#6693A1"/></linearGradient><linearGradient id="paint66_linear" x1="130.722" y1="143.613" x2="128.64" y2="187.417" gradientUnits="userSpaceOnUse"><stop offset=".018" stop-color="#ECE6BE"/><stop offset=".536" stop-color="#D3C1B4"/><stop offset="1" stop-color="#6693A1"/></linearGradient><linearGradient id="paint67_linear" x1="172.655" y1="145.607" x2="170.573" y2="189.41" gradientUnits="userSpaceOnUse"><stop offset=".018" stop-color="#ECE6BE"/><stop offset=".536" stop-color="#D3C1B4"/><stop offset="1" stop-color="#6693A1"/></linearGradient><linearGradient id="paint68_linear" x1="81.548" y1="141.275" x2="79.466" y2="185.079" gradientUnits="userSpaceOnUse"><stop offset=".018" stop-color="#ECE6BE"/><stop offset=".536" stop-color="#D3C1B4"/><stop offset="1" stop-color="#6693A1"/></linearGradient><linearGradient id="paint69_linear" x1="90.187" y1="141.686" x2="88.104" y2="185.489" gradientUnits="userSpaceOnUse"><stop offset=".018" stop-color="#ECE6BE"/><stop offset=".536" stop-color="#D3C1B4"/><stop offset="1" stop-color="#6693A1"/></linearGradient><linearGradient id="paint70_linear" x1="99.267" y1="142.118" x2="97.184" y2="185.921" gradientUnits="userSpaceOnUse"><stop offset=".018" stop-color="#ECE6BE"/><stop offset=".536" stop-color="#D3C1B4"/><stop offset="1" stop-color="#6693A1"/></linearGradient><linearGradient id="paint71_linear" x1="134.467" y1="143.791" x2="132.385" y2="187.594" gradientUnits="userSpaceOnUse"><stop offset=".018" stop-color="#ECE6BE"/><stop offset=".536" stop-color="#D3C1B4"/><stop offset="1" stop-color="#6693A1"/></linearGradient><linearGradient id="paint72_linear" x1="121.204" y1="143.161" x2="119.122" y2="186.964" gradientUnits="userSpaceOnUse"><stop offset=".018" stop-color="#ECE6BE"/><stop offset=".536" stop-color="#D3C1B4"/><stop offset="1" stop-color="#6693A1"/></linearGradient><linearGradient id="paint73_linear" x1="112.177" y1="142.731" x2="110.095" y2="186.535" gradientUnits="userSpaceOnUse"><stop offset=".018" stop-color="#ECE6BE"/><stop offset=".536" stop-color="#D3C1B4"/><stop offset="1" stop-color="#6693A1"/></linearGradient><linearGradient id="paint74_linear" x1="117.567" y1="142.988" x2="115.484" y2="186.791" gradientUnits="userSpaceOnUse"><stop offset=".018" stop-color="#ECE6BE"/><stop offset=".536" stop-color="#D3C1B4"/><stop offset="1" stop-color="#6693A1"/></linearGradient><linearGradient id="paint75_linear" x1="105.475" y1="142.413" x2="103.392" y2="186.216" gradientUnits="userSpaceOnUse"><stop offset=".018" stop-color="#ECE6BE"/><stop offset=".536" stop-color="#D3C1B4"/><stop offset="1" stop-color="#6693A1"/></linearGradient><linearGradient id="paint76_linear" x1="130.986" y1="143.626" x2="128.904" y2="187.429" gradientUnits="userSpaceOnUse"><stop offset=".018" stop-color="#ECE6BE"/><stop offset=".536" stop-color="#D3C1B4"/><stop offset="1" stop-color="#6693A1"/></linearGradient><linearGradient id="paint77_linear" x1="118.576" y1="143.036" x2="116.494" y2="186.839" gradientUnits="userSpaceOnUse"><stop offset=".018" stop-color="#ECE6BE"/><stop offset=".536" stop-color="#D3C1B4"/><stop offset="1" stop-color="#6693A1"/></linearGradient><linearGradient id="paint78_linear" x1="105.115" y1="142.396" x2="103.032" y2="186.199" gradientUnits="userSpaceOnUse"><stop offset=".018" stop-color="#ECE6BE"/><stop offset=".536" stop-color="#D3C1B4"/><stop offset="1" stop-color="#6693A1"/></linearGradient><linearGradient id="paint79_linear" x1="203.224" y1="147.06" x2="201.141" y2="190.863" gradientUnits="userSpaceOnUse"><stop offset=".018" stop-color="#ECE6BE"/><stop offset=".536" stop-color="#D3C1B4"/><stop offset="1" stop-color="#6693A1"/></linearGradient><linearGradient id="paint80_linear" x1="211.386" y1="147.448" x2="209.304" y2="191.251" gradientUnits="userSpaceOnUse"><stop offset=".018" stop-color="#ECE6BE"/><stop offset=".536" stop-color="#D3C1B4"/><stop offset="1" stop-color="#6693A1"/></linearGradient><linearGradient id="paint81_linear" x1="199.24" y1="146.871" x2="197.157" y2="190.674" gradientUnits="userSpaceOnUse"><stop offset=".018" stop-color="#ECE6BE"/><stop offset=".536" stop-color="#D3C1B4"/><stop offset="1" stop-color="#6693A1"/></linearGradient><linearGradient id="paint82_linear" x1="185.778" y1="146.231" x2="183.696" y2="190.034" gradientUnits="userSpaceOnUse"><stop offset=".018" stop-color="#ECE6BE"/><stop offset=".536" stop-color="#D3C1B4"/><stop offset="1" stop-color="#6693A1"/></linearGradient><linearGradient id="paint83_linear" x1="94.366" y1="141.885" x2="92.284" y2="185.687" gradientUnits="userSpaceOnUse"><stop offset=".018" stop-color="#ECE6BE"/><stop offset=".536" stop-color="#D3C1B4"/><stop offset="1" stop-color="#6693A1"/></linearGradient><linearGradient id="paint84_linear" x1="160.72" y1="145.039" x2="158.637" y2="188.842" gradientUnits="userSpaceOnUse"><stop offset=".018" stop-color="#ECE6BE"/><stop offset=".536" stop-color="#D3C1B4"/><stop offset="1" stop-color="#6693A1"/></linearGradient><linearGradient id="paint85_linear" x1="59.862" y1="140.244" x2="57.779" y2="184.048" gradientUnits="userSpaceOnUse"><stop offset=".018" stop-color="#ECE6BE"/><stop offset=".536" stop-color="#D3C1B4"/><stop offset="1" stop-color="#6693A1"/></linearGradient><linearGradient id="paint86_linear" x1="143.144" y1="144.204" x2="141.061" y2="188.007" gradientUnits="userSpaceOnUse"><stop offset=".018" stop-color="#ECE6BE"/><stop offset=".536" stop-color="#D3C1B4"/><stop offset="1" stop-color="#6693A1"/></linearGradient><linearGradient id="paint87_linear" x1="108.482" y1="125.822" x2="190.684" y2="125.822" gradientUnits="userSpaceOnUse"><stop stop-color="#fff"/><stop offset=".959" stop-color="#fff" stop-opacity=".039"/><stop offset=".999" stop-color="#fff" stop-opacity="0"/></linearGradient><linearGradient id="paint88_linear" x1="126.295" y1="150.64" x2="187.726" y2="124.903" gradientUnits="userSpaceOnUse"><stop stop-color="#fff"/><stop offset=".856" stop-color="#fff" stop-opacity=".039"/><stop offset=".891" stop-color="#fff" stop-opacity="0"/></linearGradient><linearGradient id="paint89_linear" x1="200.612" y1="110.758" x2="188.313" y2="118.608" gradientUnits="userSpaceOnUse"><stop stop-color="#9CC9D1"/><stop offset="1" stop-color="#B9E081"/></linearGradient><radialGradient id="paint90_radial" cx="0" cy="0" r="1" gradientUnits="userSpaceOnUse" gradientTransform="matrix(46.56205 -6.60438 1.64467 11.59524 100.245 146.87)"><stop stop-color="#617F9C" stop-opacity=".7"/><stop offset=".169" stop-color="#6986A5" stop-opacity=".582"/><stop offset=".44" stop-color="#7F9ABC" stop-opacity=".392"/><stop offset=".776" stop-color="#A3BAE2" stop-opacity=".157"/><stop offset="1" stop-color="#BFD3FF" stop-opacity="0"/></radialGradient><linearGradient id="paint91_linear" x1="104.898" y1="58.108" x2="117.149" y2="81.567" gradientUnits="userSpaceOnUse"><stop stop-color="#fff" stop-opacity="0"/><stop offset=".972" stop-color="#fff"/></linearGradient><linearGradient id="paint92_linear" x1="65.865" y1="65.97" x2="74.63" y2="158.396" gradientUnits="userSpaceOnUse"><stop stop-color="#519B4C" stop-opacity="0"/><stop offset="1" stop-color="#519B4C"/></linearGradient><linearGradient id="paint93_linear" x1="107.034" y1="96.88" x2="77.008" y2="177.409" gradientUnits="userSpaceOnUse"><stop stop-color="#519B4C" stop-opacity="0"/><stop offset="1" stop-color="#519B4C"/></linearGradient><linearGradient id="paint94_linear" x1="76.95" y1="60.372" x2="147.228" y2="80.784" gradientUnits="userSpaceOnUse"><stop offset=".198" stop-color="#fff" stop-opacity="0"/><stop offset=".972" stop-color="#fff"/></linearGradient><linearGradient id="paint95_linear" x1="105.316" y1="135.337" x2="70.64" y2="178.253" gradientUnits="userSpaceOnUse"><stop stop-color="#519B4C" stop-opacity="0"/><stop offset="1" stop-color="#519B4C"/></linearGradient><linearGradient id="paint96_linear" x1="109.337" y1="109.493" x2="129.841" y2="98.578" gradientUnits="userSpaceOnUse"><stop stop-color="#E5E3E3"/><stop offset="1" stop-color="#E5E3E3" stop-opacity="0"/></linearGradient><linearGradient id="paint97_linear" x1="70.745" y1="106.7" x2="105.288" y2="106.807" gradientUnits="userSpaceOnUse"><stop stop-color="#E5E3E3"/><stop offset="1" stop-color="#E5E3E3" stop-opacity="0"/></linearGradient><radialGradient id="paint98_radial" cx="0" cy="0" r="1" gradientUnits="userSpaceOnUse" gradientTransform="matrix(36.64027 1.4613 -1.4162 35.50957 122.42 101.028)"><stop offset=".393" stop-color="#FFE800"/><stop offset=".555" stop-color="#FDD507"/><stop offset=".882" stop-color="#F8A517"/><stop offset="1" stop-color="#F6921E"/></radialGradient><linearGradient id="paint99_linear" x1="102.077" y1="119.472" x2="125.509" y2="120.467" gradientUnits="userSpaceOnUse"><stop stop-color="#3F843F"/><stop offset="1" stop-color="#519B4C"/></linearGradient><radialGradient id="paint100_radial" cx="0" cy="0" r="1" gradientUnits="userSpaceOnUse" gradientTransform="matrix(36.64027 1.4613 -1.41621 35.50957 122.796 99.767)"><stop offset=".393" stop-color="#FFE800"/><stop offset=".555" stop-color="#FDD507"/><stop offset=".882" stop-color="#F8A517"/><stop offset="1" stop-color="#F6921E"/></radialGradient><radialGradient id="paint101_radial" cx="0" cy="0" r="1" gradientUnits="userSpaceOnUse" gradientTransform="matrix(11.72078 .46745 -.45303 11.35907 124.023 123.578)"><stop offset=".057" stop-color="#FFE800"/><stop offset=".94" stop-color="#FFE800" stop-opacity="0"/></radialGradient><linearGradient id="paint102_linear" x1="114.157" y1="120.886" x2="117.524" y2="108.319" gradientUnits="userSpaceOnUse"><stop offset=".001" stop-color="#fff" stop-opacity="0"/><stop offset="1" stop-color="#fff"/></linearGradient><linearGradient id="paint103_linear" x1="123.486" y1="103.804" x2="103.126" y2="133.678" gradientUnits="userSpaceOnUse"><stop stop-color="#FFF100" stop-opacity="0"/><stop offset="1" stop-color="#F6921E"/></linearGradient><linearGradient id="paint104_linear" x1="122.624" y1="123.32" x2="118.152" y2="135.315" gradientUnits="userSpaceOnUse"><stop stop-color="#FFF100" stop-opacity="0"/><stop offset="1" stop-color="#F6921E"/></linearGradient><linearGradient id="paint105_linear" x1="134.339" y1="123.841" x2="99.628" y2="117.237" gradientUnits="userSpaceOnUse"><stop stop-color="#F27F82"/><stop offset="1" stop-color="#B33840"/></linearGradient><linearGradient id="paint106_linear" x1="134.339" y1="123.841" x2="99.628" y2="117.237" gradientUnits="userSpaceOnUse"><stop stop-color="#F27F82"/><stop offset="1" stop-color="#BE4C51"/></linearGradient><linearGradient id="paint107_linear" x1="46.159" y1="101.095" x2="95.689" y2="178.062" gradientUnits="userSpaceOnUse"><stop stop-color="#519B4C" stop-opacity="0"/><stop offset="1" stop-color="#519B4C"/></linearGradient><linearGradient id="paint108_linear" x1="46.327" y1="126.008" x2="43.313" y2="117.717" gradientUnits="userSpaceOnUse"><stop stop-color="#63332A"/><stop offset="1" stop-color="#361308"/></linearGradient><linearGradient id="paint109_linear" x1="61.086" y1="130.237" x2="63.842" y2="128.471" gradientUnits="userSpaceOnUse"><stop stop-color="#63332A"/><stop offset="1" stop-color="#48211C"/></linearGradient><linearGradient id="paint110_linear" x1="44.413" y1="89.213" x2="47.89" y2="108.345" gradientUnits="userSpaceOnUse"><stop stop-color="#63332A"/><stop offset="1" stop-color="#48211C"/></linearGradient><linearGradient id="paint111_linear" x1="75.361" y1="142.867" x2="76.211" y2="147.543" gradientUnits="userSpaceOnUse"><stop stop-color="#FDF3B3"/><stop offset="1" stop-color="#E6B26C"/></linearGradient><linearGradient id="paint112_linear" x1="34.332" y1="110.726" x2="45.352" y2="109.247" gradientUnits="userSpaceOnUse"><stop stop-color="#63332A"/><stop offset="1" stop-color="#361308"/></linearGradient><linearGradient id="paint113_linear" x1="65.374" y1="132.456" x2="85.569" y2="124.805" gradientUnits="userSpaceOnUse"><stop stop-color="#63332A"/><stop offset="1" stop-color="#48211C"/></linearGradient><linearGradient id="paint114_linear" x1="58.303" y1="125.43" x2="57.112" y2="122.155" gradientUnits="userSpaceOnUse"><stop stop-color="#FDF3B3"/><stop offset="1" stop-color="#E6B26C"/></linearGradient><linearGradient id="paint115_linear" x1="57.119" y1="122.05" x2="56.587" y2="120.587" gradientUnits="userSpaceOnUse"><stop stop-color="#63332A"/><stop offset="1" stop-color="#48211C"/></linearGradient><linearGradient id="paint116_linear" x1="58.161" y1="123.431" x2="57.636" y2="121.987" gradientUnits="userSpaceOnUse"><stop stop-color="#63332A"/><stop offset="1" stop-color="#48211C"/></linearGradient><linearGradient id="paint117_linear" x1="183.191" y1="121.158" x2="202.288" y2="135.836" gradientUnits="userSpaceOnUse"><stop stop-color="#FEFFFF"/><stop offset=".602" stop-color="#E5E5E5"/><stop offset="1" stop-color="#C5C6C7"/></linearGradient><linearGradient id="paint118_linear" x1="187.755" y1="125.069" x2="212.909" y2="131.997" gradientUnits="userSpaceOnUse"><stop stop-color="#FEFFFF"/><stop offset=".602" stop-color="#E5E5E5"/><stop offset="1" stop-color="#E6E7E8"/></linearGradient><linearGradient id="paint119_linear" x1="184.78" y1="110.307" x2="148.403" y2="172.663" gradientUnits="userSpaceOnUse"><stop stop-color="#FEFFFF"/><stop offset=".602" stop-color="#E5E5E5"/><stop offset="1" stop-color="#E6E7E8"/></linearGradient><linearGradient id="paint120_linear" x1="168.386" y1="126.547" x2="155.427" y2="161.446" gradientUnits="userSpaceOnUse"><stop stop-color="#FEFFFF"/><stop offset=".602" stop-color="#E5E5E5"/><stop offset="1" stop-color="#E6E7E8"/></linearGradient><clipPath id="clip0"><path fill="#fff" d="M0 0h260v190H0z"/></clipPath></defs></svg>