<svg xmlns="http://www.w3.org/2000/svg" xmlns:xlink="http://www.w3.org/1999/xlink" width="40" height="40"><defs><path id="A" d="M10 13.89c0 7.052 6.353 14.802 8.93 17.637a1.43 1.43 0 0 0 2.131-.005h.001C23.635 28.66 30 20.94 30 13.683 30 8.605 25.94 4 20 4c-5.6 0-10 4.324-10 9.89"/></defs><g fill-rule="evenodd"><path fill="#ff8b00" d="M24.964 29.163C27.396 29.88 29 31.106 29 32.5c0 2.2-4.03 4-9 4s-9-1.8-9-4c0-1.4 1.594-2.614 4.015-3.33a58.269 58.269 0 0 0 3.546 4.125l.156.164c.308.323.7.5 1.124.535l.156.006c.415 0 .828-.145 1.158-.433l.12-.114a60.53 60.53 0 0 0 3.541-4.104z"/><mask id="B" fill="#fff"><use xlink:href="#A"/></mask><use fill="#ffc400" xlink:href="#A"/><path fill="#ff8b00" fill-rule="nonzero" d="M40.1 7.27c0 8.156-6.613 14.768-14.77 14.768A14.77 14.77 0 0 1 10.563 7.269c0-8.156 6.612-14.77 14.768-14.77S40.1-.887 40.1 7.27" mask="url(#B)"/><path fill="#fff" d="M24 13a4.001 4.001 0 0 1-8 0 4 4 0 1 1 8 0" mask="url(#B)"/></g></svg>