<svg xmlns="http://www.w3.org/2000/svg" xmlns:xlink="http://www.w3.org/1999/xlink" width="40" height="40"><defs><path id="A" d="M2.934 0A2.933 2.933 0 0 0 .001 2.934v14.25a2.934 2.934 0 0 0 2.933 2.934h17.184v-18A2.118 2.118 0 0 0 18 0H2.934z"/><path id="B" d="M17.706 28.118a4.235 4.235 0 1 1-8.47 0 4.235 4.235 0 0 1 8.47 0"/><path id="C" d="M15.6 28.118a2.118 2.118 0 1 1-4.235 0 2.118 2.118 0 0 1 4.235 0"/></defs><g fill="none" fill-rule="evenodd"><path fill="#ffc400" fill-rule="nonzero" d="M26.236 12.235h5.057c.653 0 1.27.428 1.67.962l3.883 5.588 1.934.873A2.182 2.182 0 0 1 40 21.63v5.426a1.06 1.06 0 0 1-1.06 1.06H26.235v-15.88z"/><path fill="#fff" d="M36.847 18.785h-6.55a.402.402 0 0 1-.394-.325l-.532-3.052h5.13l2.347 3.377z"/><g transform="translate(5 8)"><mask id="D" fill="#fff"><use xlink:href="#A"/></mask><g fill-rule="nonzero"><use fill="#ffc400" xlink:href="#A"/><path fill="#ff8b00" d="M32-.676c0 6.903-5.597 12.5-12.5 12.5S7 6.227 7-.676s5.596-12.5 12.5-12.5S32-7.58 32-.676" mask="url(#D)"/></g></g><use xlink:href="#B" fill="#ff8b00" fill-rule="nonzero"/><use xlink:href="#C" fill="#fff"/><use xlink:href="#B" x="19.118" fill="#ff8b00" fill-rule="nonzero"/><use xlink:href="#C" x="19.108" fill="#fff"/><g fill="#ff8b00"><rect width="6" height="3" x="2" y="13" rx="1.5"/><rect width="11" height="3" y="18" rx="1.5"/></g></g></svg>