<svg xmlns="http://www.w3.org/2000/svg" xmlns:xlink="http://www.w3.org/1999/xlink" width="40" height="40"><defs><rect id="A" width="18.379" height="18.379" x="6.964" y="7.586" rx="2"/></defs><g fill="none" fill-rule="evenodd" transform="rotate(345 25.096 -8.893)"><path stroke="#ffc400" stroke-linecap="round" stroke-width="2.3" d="M4.595 5.36A4.595 4.595 0 0 0 0 .767"/><g fill="#ffc400"><rect width="22.974" height="3.446" x="4.595" y="27.761" rx="1.723"/><path d="M5.744 5.36v22.975a1.149 1.149 0 0 1-2.298 0V5.36a1.149 1.149 0 1 1 2.298 0z"/></g><circle cx="4.595" cy="29.484" r="3.731" fill="#ff8b00" stroke="#fff"/><mask id="B" fill="#fff"><use xlink:href="#A"/></mask><use fill="#ffc400" xlink:href="#A"/><path fill="#ff8b00" d="M24.578 19.385A11.49 11.49 0 0 1 13.091 7.897 11.49 11.49 0 0 1 24.578-3.59 11.49 11.49 0 0 1 36.065 7.897a11.49 11.49 0 0 1-11.487 11.488z" mask="url(#B)"/><path fill="#fff" d="M23.12 13.256l-4.745.002c-.38 0-.7-.247-.7-.552V10.75c0-.305.308-.553.7-.554l4.745-.001c.382 0 .69.247.69.552v1.956c0 .305-.3.553-.7.553" mask="url(#B)"/></g></svg>