<svg width="21" height="18" viewBox="0 0 21 18" fill="none" xmlns="http://www.w3.org/2000/svg">
<path d="M15.3401 0.830029C14.3392 0.839726 13.372 1.19273 12.6001 1.83003C11.9468 2.33979 11.4027 2.97573 11.0001 3.70003C10.6031 2.95774 10.0586 2.30438 9.4001 1.78003C8.62825 1.14273 7.66101 0.789726 6.6601 0.780029C5.97786 0.790332 5.30495 0.940162 4.68278 1.2203C4.06062 1.50043 3.50238 1.90494 3.04243 2.40893C2.58247 2.91291 2.23053 3.5057 2.00828 4.15081C1.78603 4.79592 1.69817 5.47969 1.7501 6.16003C1.7501 9.45003 4.3901 11.69 8.3801 15.09L10.6201 17C10.7236 17.0956 10.8592 17.1487 11.0001 17.1487C11.141 17.1487 11.2766 17.0956 11.3801 17L13.6201 15.07C17.6201 11.67 20.2501 9.43003 20.2501 6.14003C20.2921 5.46533 20.1968 4.78911 19.9701 4.15226C19.7433 3.51542 19.3898 2.93117 18.9309 2.43483C18.4719 1.93849 17.9171 1.54037 17.2999 1.26454C16.6827 0.988706 16.016 0.840891 15.3401 0.830029Z" stroke="#2E3137" stroke-width="1.5" stroke-miterlimit="10"/>
</svg>
