<svg width="24" height="24" viewBox="0 0 24 24" fill="none" xmlns="http://www.w3.org/2000/svg">
<g clip-path="url(#clip0_1_110)">
<path d="M2.08469 1.86484C2.03643 2.07929 2.01248 2.35541 2.01248 2.69323V4.89215H0.905762V0.949707H1.86878L1.86044 1.65873C1.93737 1.43703 2.06291 1.26321 2.23672 1.13803C2.41017 1.01284 2.61518 0.950079 2.85177 0.950079C3.12681 0.950079 3.34489 1.02846 3.50636 1.18521C3.66783 1.34196 3.74875 1.55531 3.74875 1.82528C3.74875 2.05206 3.68851 2.22551 3.56805 2.34598C3.44758 2.46645 3.27631 2.52668 3.0546 2.52668C3.00163 2.52668 2.93885 2.51942 2.86664 2.50491C2.79443 2.49039 2.74109 2.47117 2.70735 2.44722C2.74109 2.34127 2.75815 2.21571 2.75815 2.07093C2.75815 1.71896 2.64494 1.54298 2.41815 1.54298C2.24362 1.54298 2.13295 1.65039 2.08469 1.86484Z" fill="#00AA5B"/>
<path d="M5.79533 4.82709C5.62189 4.90438 5.42631 4.94284 5.20932 4.94284C4.83775 4.94284 4.52461 4.84633 4.26879 4.65365C4.01298 4.46098 3.88525 4.19319 3.88525 3.85065C3.88525 3.39745 4.09499 3.08865 4.51445 2.92464C4.93391 2.76063 5.46187 2.67861 6.09868 2.67861V2.04943C6.09868 1.82264 6.06712 1.64919 6.0047 1.52872C5.94193 1.40825 5.81892 1.34802 5.63568 1.34802C5.46223 1.34802 5.32689 1.39991 5.23073 1.50369C5.13421 1.60746 5.08595 1.74862 5.08595 1.92678C5.08595 2.00407 5.10046 2.11982 5.12949 2.27403C5.09575 2.29834 5.04495 2.31612 4.97745 2.32846C4.90996 2.34044 4.84719 2.3466 4.78949 2.3466C4.59174 2.3466 4.42773 2.29943 4.29746 2.20545C4.16719 2.11147 4.10224 1.97504 4.10224 1.79688C4.10224 1.52183 4.25791 1.31211 4.56888 1.16769C4.87985 1.02291 5.2525 0.950684 5.68648 0.950684C6.20718 0.950684 6.59072 1.05447 6.83674 1.26166C7.08275 1.46922 7.20576 1.81866 7.20576 2.31069V4.0611C7.20576 4.19609 7.22245 4.31438 7.25656 4.41562C7.29031 4.51685 7.348 4.60611 7.43001 4.6834C7.37703 4.75089 7.29865 4.80278 7.19488 4.83907C7.0911 4.87535 6.98623 4.89314 6.88028 4.89314C6.70175 4.89314 6.55226 4.85576 6.43179 4.78101C6.31132 4.70626 6.22931 4.59923 6.18577 4.45917C6.09941 4.62681 5.96914 4.7498 5.79533 4.82709ZM5.96551 4.21206C6.05478 4.05784 6.09941 3.86987 6.09941 3.64781V3.04002C5.38567 3.04002 5.02898 3.30056 5.02898 3.82126C5.02898 4.0045 5.07361 4.154 5.16287 4.26975C5.25214 4.3855 5.38095 4.44319 5.55004 4.44319C5.73764 4.44355 5.87625 4.36664 5.96551 4.21206Z" fill="#00AA5B"/>
<path d="M8.00879 1.03243L8.97435 1.00777L8.96347 1.65873C9.14671 1.18629 9.52517 0.949707 10.0992 0.949707C10.379 0.949707 10.6032 1.0016 10.7719 1.10537C10.9407 1.20915 11.0662 1.36445 11.1482 1.572C11.3409 1.15726 11.6932 0.949707 12.2045 0.949707C12.6193 0.949707 12.9135 1.06292 13.087 1.28971C13.2604 1.51649 13.3475 1.85649 13.3475 2.3097V4.06013C13.3475 4.19511 13.3642 4.3134 13.3983 4.41464C13.4321 4.51588 13.4898 4.60514 13.5718 4.68243C13.5188 4.74992 13.4379 4.80181 13.3294 4.83809C13.2209 4.87438 13.1135 4.89215 13.0075 4.89215C12.7568 4.89215 12.5663 4.82829 12.436 4.70057C12.3057 4.57284 12.2408 4.38343 12.2408 4.1327V2.36776C12.2408 2.08799 12.2143 1.87354 12.1613 1.72404C12.1084 1.57454 11.9879 1.4998 11.7996 1.4998C11.5779 1.4998 11.4316 1.61084 11.362 1.83254C11.2919 2.05425 11.2571 2.33873 11.2571 2.68598V4.89215H10.1504V2.36776C10.1504 2.08328 10.1239 1.86738 10.0709 1.72042C10.0179 1.57347 9.89238 1.4998 9.69463 1.4998C9.45841 1.4998 9.30274 1.60829 9.22799 1.82528C9.15324 2.04227 9.11587 2.32929 9.11587 2.68598V4.89215H8.00915L8.00879 1.03243Z" fill="#00AA5B"/>
<path d="M15.8427 4.82709C15.6693 4.90438 15.4737 4.94284 15.2567 4.94284C14.8851 4.94284 14.572 4.84633 14.3162 4.65365C14.0603 4.46098 13.9326 4.19319 13.9326 3.85065C13.9326 3.39745 14.1423 3.08865 14.5618 2.92464C14.9813 2.76063 15.5092 2.67861 16.146 2.67861V2.04943C16.146 1.82264 16.1145 1.64919 16.0521 1.52872C15.9893 1.40825 15.8663 1.34802 15.683 1.34802C15.5096 1.34802 15.3742 1.39991 15.2781 1.50369C15.1816 1.60746 15.1333 1.74862 15.1333 1.92678C15.1333 2.00407 15.1478 2.11982 15.1769 2.27403C15.1431 2.29834 15.0923 2.31612 15.0248 2.32846C14.9573 2.34044 14.8946 2.3466 14.8369 2.3466C14.6391 2.3466 14.4751 2.29943 14.3448 2.20545C14.2146 2.11147 14.1496 1.97504 14.1496 1.79688C14.1496 1.52183 14.3053 1.31211 14.6162 1.16769C14.9272 1.02291 15.2999 0.950684 15.7338 0.950684C16.2545 0.950684 16.6381 1.05447 16.8841 1.26166C17.1301 1.46922 17.2531 1.81866 17.2531 2.31069V4.0611C17.2531 4.19609 17.2698 4.31438 17.3039 4.41562C17.3377 4.51685 17.3954 4.60611 17.4774 4.6834C17.4244 4.75089 17.346 4.80278 17.2422 4.83907C17.1385 4.87535 17.0336 4.89314 16.9276 4.89314C16.7491 4.89314 16.5996 4.85576 16.4791 4.78101C16.3587 4.70626 16.2767 4.59923 16.2331 4.45917C16.1468 4.62681 16.0165 4.7498 15.8427 4.82709ZM16.0129 4.21206C16.1021 4.05784 16.1468 3.86987 16.1468 3.64781V3.04002C15.433 3.04002 15.0763 3.30056 15.0763 3.82126C15.0763 4.0045 15.121 4.154 15.2102 4.26975C15.2995 4.3855 15.4283 4.44319 15.5974 4.44319C15.785 4.44355 15.9236 4.36664 16.0129 4.21206Z" fill="#00AA5B"/>
<path d="M21.3186 4.41453C21.3523 4.51577 21.41 4.60502 21.492 4.68231C21.439 4.7498 21.3607 4.80169 21.2569 4.83798C21.1531 4.87427 21.0482 4.89204 20.9423 4.89204C20.7638 4.89204 20.6143 4.85467 20.4938 4.77992C20.3733 4.70517 20.2913 4.59812 20.2478 4.45806C20.156 4.62207 20.0246 4.74364 19.8537 4.82347C19.6825 4.90294 19.4909 4.94283 19.2786 4.94283C18.7818 4.94283 18.4226 4.75597 18.2009 4.38223C17.9792 4.00849 17.8682 3.52262 17.8682 2.92463C17.8682 2.3027 18.0177 1.81791 18.3167 1.47065C18.6156 1.1234 19.0641 0.949967 19.6621 0.949967C19.8599 0.949967 20.0261 0.969193 20.1614 1.00766V0H21.2681V4.06037C21.2681 4.19535 21.2848 4.31329 21.3186 4.41453ZM19.6404 1.38394C19.3845 1.38394 19.2184 1.52255 19.1411 1.79978C19.0638 2.077 19.0253 2.43986 19.0253 2.88835C19.0253 3.32741 19.0652 3.69243 19.1447 3.98417C19.2242 4.2759 19.3871 4.42177 19.6331 4.42177C19.8116 4.42177 19.9441 4.34485 20.0308 4.19028C20.1175 4.03606 20.1611 3.84775 20.1611 3.62604V1.55703C19.9974 1.44164 19.8236 1.38394 19.6404 1.38394Z" fill="#00AA5B"/>
<path d="M23.829 4.82709C23.6556 4.90438 23.46 4.94284 23.243 4.94284C22.8714 4.94284 22.5583 4.84633 22.3025 4.65365C22.0467 4.46098 21.9189 4.19319 21.9189 3.85065C21.9189 3.39745 22.1287 3.08865 22.5481 2.92464C22.9676 2.76063 23.4956 2.67861 24.1324 2.67861V2.04943C24.1324 1.82264 24.1008 1.64919 24.0384 1.52872C23.9756 1.40825 23.8526 1.34802 23.6694 1.34802C23.4959 1.34802 23.3606 1.39991 23.2644 1.50369C23.1679 1.60746 23.1196 1.74862 23.1196 1.92678C23.1196 2.00407 23.1342 2.11982 23.1632 2.27403C23.1294 2.29834 23.0786 2.31612 23.0111 2.32846C22.9437 2.34044 22.8809 2.3466 22.8232 2.3466C22.6254 2.3466 22.4614 2.29943 22.3312 2.20545C22.2009 2.11147 22.1359 1.97504 22.1359 1.79688C22.1359 1.52183 22.2916 1.31211 22.6026 1.16769C22.9135 1.02291 23.2862 0.950684 23.7202 0.950684C24.2409 0.950684 24.6244 1.05447 24.8704 1.26166C25.1164 1.46922 25.2395 1.81866 25.2395 2.31069V4.0611C25.2395 4.19609 25.2561 4.31438 25.2903 4.41562C25.324 4.51685 25.3817 4.60611 25.4637 4.6834C25.4107 4.75089 25.3323 4.80278 25.2286 4.83907C25.1248 4.87535 25.0199 4.89314 24.914 4.89314C24.7354 4.89314 24.5859 4.85576 24.4655 4.78101C24.345 4.70626 24.263 4.59923 24.2195 4.45917C24.1327 4.62681 24.0025 4.7498 23.829 4.82709ZM23.9988 4.21206C24.0881 4.05784 24.1327 3.86987 24.1327 3.64781V3.04002C23.419 3.04002 23.0623 3.30056 23.0623 3.82126C23.0623 4.0045 23.1069 4.154 23.1962 4.26975C23.2855 4.3855 23.4143 4.44319 23.5834 4.44319C23.771 4.44355 23.9096 4.36664 23.9988 4.21206Z" fill="#00AA5B"/>
<path d="M2.26942 10.685H4.69041V11.8132H0.976562V6.13916H4.61638V7.26728H2.26942V8.43677H4.32828V9.59791H2.26942V10.685Z" fill="#00AA5B"/>
<path d="M10.2086 11.8132H8.55366L6.88197 9.58957V11.8132H5.58911V6.13916H6.88197V8.42842L8.3559 6.13916H9.89586L8.0101 8.94732L10.2086 11.8132Z" fill="#00AA5B"/>
<path d="M10.1768 10.1579H11.4696C11.4696 10.52 11.8321 10.8001 12.2766 10.8001C12.6964 10.8001 13.0176 10.586 13.0176 10.2156C13.0176 9.99313 12.8942 9.7874 12.3916 9.62266L11.7164 9.41693C10.4645 9.07947 10.2257 8.31347 10.2257 7.77826C10.2257 6.75718 11.0988 6.04053 12.2269 6.04053C13.314 6.04053 14.1457 6.69114 14.1457 7.79459H12.8528C12.8528 7.45713 12.6471 7.16866 12.2022 7.16866C11.7987 7.16866 11.5353 7.44044 11.5353 7.75322C11.5353 7.86861 11.5683 8.12369 12.0952 8.2721L12.6881 8.46152C13.4951 8.70863 14.3188 9.12047 14.3188 10.1495C14.3188 11.3684 13.2647 11.9119 12.2273 11.9119C11.0164 11.9119 10.1768 11.2036 10.1768 10.1579Z" fill="#00AA5B"/>
<path d="M18.8159 6.13916V7.26728H17.3173V11.8128H16.0245V7.26728H14.5259V6.13916H18.8159Z" fill="#00AA5B"/>
<path d="M22.3328 11.8132L21.0316 9.82036H20.7682V11.8132H19.4753V6.13916H21.7976C23.1152 6.13916 23.7081 7.07788 23.7081 8.01659C23.7081 8.81524 23.1152 9.58122 22.3822 9.74596L23.8398 11.8128L22.3328 11.8132ZM20.7682 7.26728V8.7989H21.5915C22.1598 8.7989 22.4069 8.42842 22.4069 8.0496C22.4069 7.67078 22.1514 7.26728 21.6245 7.26728H20.7682Z" fill="#00AA5B"/>
<path d="M28.1148 11.8132L27.6866 10.4956H25.6938L25.274 11.8132H23.8904L25.9902 6.13916H27.3985L29.49 11.8132H28.1148ZM26.0479 9.37548H27.3245L26.6822 7.37433L26.0479 9.37548Z" fill="#00AA5B"/>
<path d="M7.38765 18.4106C7.41087 18.8424 7.8278 18.9698 8.21025 18.8801C8.56948 18.796 9.00055 18.5289 9.01797 18.1152C9.03393 17.7335 8.65148 17.6733 8.35394 17.6374C8.13296 17.6268 7.91198 17.617 7.69064 17.608C6.94061 17.5572 6.26969 17.2139 6.27114 16.3801C6.27186 15.8989 6.47688 15.4272 6.81288 15.0527C7.1732 14.6518 7.65544 14.3775 8.16199 14.2595C8.62608 14.1518 9.12138 14.1732 9.49803 14.4235C9.86451 14.667 10.0296 15.0941 10.0267 15.5506C9.63664 15.6286 9.24693 15.7095 8.85758 15.794C8.86666 15.4 8.49836 15.2374 8.14602 15.3292C7.83868 15.4091 7.4243 15.683 7.43518 16.0513C7.44425 16.3568 7.75486 16.473 8.02628 16.4711C8.24508 16.49 8.46352 16.5096 8.68196 16.5303C9.49367 16.5804 10.211 16.9886 10.1954 17.8819C10.1896 18.2092 10.0819 18.5568 9.891 18.8475C9.50783 19.436 8.83944 19.7873 8.21025 19.9223C7.71604 20.0282 7.19243 20.058 6.76535 19.8011C6.39088 19.5757 6.21235 19.1661 6.21562 18.7111C6.60605 18.6073 6.99649 18.5071 7.38765 18.4106Z" fill="#00AA5B"/>
<path d="M10.7646 19.304C10.7646 17.4636 10.7646 15.6235 10.7646 13.7831C11.9305 13.5709 13.0971 13.392 14.2659 13.2461C14.2659 13.5908 14.2659 13.9352 14.2659 14.2799C13.4886 14.3768 12.7125 14.4878 11.936 14.613C11.936 15.0324 11.936 15.4516 11.936 15.871C12.6159 15.7614 13.2956 15.6624 13.9763 15.5742C13.9763 15.9135 13.9763 16.2527 13.9763 16.592C13.2956 16.6802 12.6156 16.7792 11.936 16.8888C11.936 17.2814 11.936 17.674 11.936 18.0667C12.7364 17.9375 13.5365 17.8235 14.3381 17.7248C14.3381 18.0696 14.3381 18.4139 14.3381 18.7586C13.1454 18.9056 11.9548 19.0874 10.7646 19.304Z" fill="#00AA5B"/>
<path d="M19.0862 18.3827C18.6155 18.4012 18.1445 18.4245 17.6736 18.4528C17.2632 17.8457 16.8506 17.2401 16.4362 16.6359C16.3303 16.645 16.2769 16.6494 16.171 16.6588C16.171 17.2945 16.171 17.9302 16.171 18.566C15.7773 18.6019 15.3832 18.6407 14.9895 18.6832C14.9895 16.8428 14.9895 15.0027 14.9895 13.1623C15.7453 13.0814 16.5004 13.0135 17.2559 12.9595C17.7701 12.9217 18.2784 13.0578 18.613 13.4185C18.9192 13.7487 19.0945 14.1932 19.0945 14.6729C19.0941 15.5129 18.556 16.2669 17.7138 16.4955C18.1736 17.1225 18.6311 17.7517 19.0862 18.3827ZM16.171 14.0789C16.171 14.597 16.171 15.1152 16.171 15.6333C16.503 15.604 16.8354 15.5771 17.1674 15.5539C17.5778 15.5448 17.867 15.1018 17.8662 14.7313C17.8655 14.3713 17.6075 13.9519 17.1997 13.9972C16.8568 14.0208 16.5139 14.0488 16.171 14.0789Z" fill="#00AA5B"/>
<path d="M22.7439 12.8466C23.135 12.8589 23.5254 12.8742 23.9159 12.8927C23.9159 14.076 23.9159 15.2592 23.9159 16.4425C23.9184 16.9774 23.7294 17.5195 23.2943 17.8972C22.8484 18.2844 22.3248 18.4219 21.7932 18.4284C21.2315 18.4353 20.6915 18.2205 20.2804 17.8627C19.8642 17.5006 19.6454 16.9752 19.6472 16.3939C19.6472 15.2106 19.6472 14.0273 19.6472 12.844C20.0456 12.8342 20.4433 12.8277 20.841 12.8245C20.841 14.0077 20.841 15.191 20.841 16.3743C20.8389 16.6392 20.9386 16.8834 21.1212 17.0546C21.2993 17.2216 21.5377 17.3188 21.7932 17.3228C22.0283 17.3264 22.2718 17.2423 22.4565 17.0699C22.6481 16.8914 22.7475 16.6432 22.7439 16.3964C22.7439 15.2132 22.7439 14.0299 22.7439 12.8466Z" fill="#00AA5B"/>
<path d="M3.73022 16.6914L5.72086 15.1221L3.73022 15.3565V16.6914Z" fill="#00AA5B"/>
<path d="M3.29224 14.031L5.72084 14.7571L4.38444 13.2632L3.29224 14.031Z" fill="#00AA5B"/>
</g>
<defs>
<clipPath id="clip0_1_110">
<rect width="24" height="24" fill="white"/>
</clipPath>
</defs>
</svg>
