<svg width="24" height="24" viewBox="0 0 24 24" fill="none" xmlns="http://www.w3.org/2000/svg">
<g clip-path="url(#clip0_1_33)">
<path d="M17.8999 2.75H6.8999C5.10498 2.75 3.6499 4.20507 3.6499 6V15C3.6499 16.7949 5.10498 18.25 6.8999 18.25H17.8999C19.6948 18.25 21.1499 16.7949 21.1499 15V6C21.1499 4.20507 19.6948 2.75 17.8999 2.75Z" fill="white"/>
<path d="M8.9999 23.5H14.9999H8.9999Z" fill="#2E3137"/>
<path d="M9.7499 12.882V7.11803C9.7499 6.93219 9.94548 6.81131 10.1117 6.89443L15.8756 9.77639C16.0599 9.86853 16.0599 10.1315 15.8756 10.2236L10.1117 13.1056C9.94548 13.1887 9.7499 13.0678 9.7499 12.882Z" fill="white"/>
<path d="M9.7499 7.5V12.5V7.5Z" fill="#2E3137"/>
<path d="M8.9999 23.5H14.9999M9.7499 7.5V12.5M6.8999 2.75H17.8999C19.6948 2.75 21.1499 4.20507 21.1499 6V15C21.1499 16.7949 19.6948 18.25 17.8999 18.25H6.8999C5.10498 18.25 3.6499 16.7949 3.6499 15V6C3.6499 4.20507 5.10498 2.75 6.8999 2.75ZM9.7499 12.882V7.11803C9.7499 6.93219 9.94548 6.81131 10.1117 6.89443L15.8756 9.77639C16.0599 9.86853 16.0599 10.1315 15.8756 10.2236L10.1117 13.1056C9.94548 13.1887 9.7499 13.0678 9.7499 12.882Z" stroke="#2E3137" stroke-width="1.5" stroke-linecap="round"/>
</g>
<defs>
<clipPath id="clip0_1_33">
<rect width="24" height="24" fill="white"/>
</clipPath>
</defs>
</svg>
