<svg width="20" height="20" viewBox="0 0 20 20" fill="none" xmlns="http://www.w3.org/2000/svg">
<path d="M6.00003 9.99999L9.00003 13L15 6.99999M19.25 1.77999C19.25 1.51477 19.1447 1.26042 18.9571 1.07288C18.7696 0.885344 18.5152 0.779987 18.25 0.779987H15.15C14.1742 0.746292 13.2034 0.934945 12.3112 1.33168C11.419 1.72841 10.6287 2.32283 10 3.06999C9.37434 2.31736 8.58533 1.71724 7.69295 1.31524C6.80058 0.913239 5.82831 0.719925 4.85003 0.749987H1.78003C1.51481 0.749987 1.26046 0.855344 1.07292 1.04288C0.885386 1.23042 0.780029 1.48477 0.780029 1.74999V18.22C0.780029 18.4852 0.885386 18.7396 1.07292 18.9271C1.26046 19.1146 1.51481 19.22 1.78003 19.22H12.06C13.0042 19.22 13.9392 19.034 14.8115 18.6727C15.6839 18.3113 16.4765 17.7817 17.1441 17.1141C17.8118 16.4464 18.3414 15.6538 18.7027 14.7815C19.0641 13.9091 19.25 12.9742 19.25 12.03V1.77999Z" stroke="#2E3137" stroke-width="1.5" stroke-linecap="round" stroke-linejoin="round"/>
</svg>
